<?xml version="1.0" encoding="UTF-8"?>
<svg version="1.1" viewBox="0 0 1024 1024" width="1024" height="1024" xmlns="http://www.w3.org/2000/svg">
<path transform="translate(0)" d="m0 0h1024v1024h-1024z" fill="#CDCECC"/>
<path transform="translate(1022,793)" d="m0 0h2v231h-474l4-3 24-12 39-19 9-2v-2l6-2 3-3 15-7 8-3 19-10 16-8 17-8 44-22 10-3v-2l11-4 5-3h3v-2l9-4 4-1v-2l16-6 2-2h4v-2l26-13 10-4 6-4 8-3 12-6 7-2v-2l21-9 13-7h3v-2l10-4 7-4 10-4 5-1v-2l11-5h3v-2l10-4h3v-2l9-4 19-10z" fill="#CDCECC"/>
<path transform="translate(0)" d="m0 0h450l-1 2-19 9h-2v2l-11 5-23 11-15 7-10 3h-3v3l-7 3-14 5-13 6-23 10-9 4-14 5-4 3-13 5-11 5-13 5-22 9-10 5-7 4-16 6-21 9-11 5-12 5-16 8-16 6-5 3-10 4-9 4-19 8-21 9-10 5-16 5-12 5-12 4z" fill="#CECFCD"/>
<path transform="translate(450)" d="m0 0h127l-1 5-3 5-8 4-5-2-3-1-1 6-6-1-6 2-6 1-13-3-8 3-8 4-14 5-9 4-9 3-10 5h-3l-1 3-22 6-15 6h-2v2l-14 6-10 5-16 7-8 3h-4v2l-9 4-29 12-14 7-12 5-7 1v2l-17 8-7 3-10 4-24 11-9 3v2l-4 2-9 2-21 10-1 3-5 3-1 4h3l-1 2v1h6l1 4-5-1-2 1 1 2h-2l-1 5h5l-1 7h-2l-1 4-4 2v4l-6 4 2 6 5 4 1 10h-2l-1 3-2 1 1 2-2 5 3-3 2-3 6-1 1 5 1 4-70 32-19 8-11 5-26 12-11 5-23 10-25 10-12 6h-2v-125l12-5 21-8 8-3 19-8 11-5 19-8 9-4 11-5 16-7 10-4 12-6 10-4 11-5 16-7 15-6 12-5 6-4 10-4 26-11 14-5 10-5 7-3 11-5 12-4 32-15 17-6 5-3h4v-3l13-4 25-12 13-6 9-4h2v-2l17-8z" fill="#CDCECC"/>
<path transform="translate(0,647)" d="m0 0 3 4 5 13 6 11 1 7h2l4 9 5 9 3 8 3 5 3 7 9 19 6 13 7 15 8 16 10 21 3 7 5 12 5 9 11 23 4 10 8 16 9 20 9 18 11 23 14 30 3 7v3h2l8 18v4h2l4 10v2h2l2 5v3h-177z" fill="#4B5354"/>
<path transform="translate(577)" d="m0 0h55l-2 6-6-1v8l-2 4 2 2 1 20 2 6-6 4-11 6-13 5-20 8-15 7-9 4-28 12-8 4-16 6-8 4-16 6-10 5-11 5-19 8-8 4-10 4-25 11-29 13-9 4-12 5-21 9-15 7-16 8-18 8-13 5-16 7-15 7-8 4-7 3-16 6-2-2v-6l-6 1-3 5h-2l1-5v-3l3-3h2l-2-10-5-4-2-6 3-3 4-1-1-4 4-3 2-3h2v-6l-4-1 1-7 5-2 2 1-1-2-7-1 3-3-4 1 2-6 5-2v-2l-2-1 11-5 16-7 10-2v-2l33-15 12-5 15-7 4-2h3v-2l11-4 13-5 16-8 22-9 6-3h3v-2l17-6 16-7 16-8h3v-2l20-8 19-5 3-3 5-2 10-5 13-4 11-5 10-4 3-2 9-2 11 3 6-1 6-2 5 1 2-5h5l3 2 6-3h2l2-5z" fill="#A1BBC7"/>
<path transform="translate(1022,793)" d="m0 0h2v41l-5 1-1 3-3 1-2 3-7 2-9 6-7 3-5 3-6 2-2 3-8 3h-3v2l-11 5-5 3h-4v2l-12 5-5 3h-3v2l-8 3h-4l-2 4-10 5-3 1-3 3h-6v2l-10 4-7 4-5 4-10 3-5 4-17 8-14 7h-4v2l-3 2h-5v2l-8 2h-4l-1 3-8 3-8 4-9 4-9 3-1 3-8 4-8 2v2l-15 6-1 2-7 3-5 1v2l-11 3-5 2v2l-4 2-8 1-1 3-12 6-11 7h-4v2l-6 2v2l-6 1v3h-100l4-3 24-12 39-19 9-2v-2l6-2 3-3 15-7 8-3 19-10 16-8 17-8 44-22 10-3v-2l11-4 5-3h3v-2l9-4 4-1v-2l16-6 2-2h4v-2l26-13 10-4 6-4 8-3 12-6 7-2v-2l21-9 13-7h3v-2l10-4 7-4 10-4 5-1v-2l11-5h3v-2l10-4h3v-2l9-4 19-10z" fill="#495152"/>
<path transform="translate(420,267)" d="m0 0h24l16 1 13 3 13 5 38 18-3 2-3 1-4-3h-2l-5-1-3 1v2l13 1 5 2v8l-3 1 1 2h-2l1 4-2 3-1 2-2-1-1 2-2-2 2-11-6-4-3-1h-8l-16 4v2l-9 4-7 1v2l-5 2h-4l-1 3h3l7-3h4v-2l9-4 16-6 13-1 5 4-1 7-6 17-3 6-6 14-5 15h-2l-2 9-7 17-4 4-2 9-2 6-2-4 1-8h2l1-4 5-12 3-5 3-12-3 1-2-5-5-2-6 1-12 5-13 6-10 4-15 7-19 8-3-1v-5h-3v-3l16-9 17-9 24-10 10-4 11-5 5 1 4 5 2-5h-2l-1-2h-20l-2 3h-2l-1 2-3-2h-9l-3-1-1-3v-5l-2 1-5-1-10 4-8 1-10 5-7 3h-6l-2 4-4 3-10 3-8 5-9 3h-4l-1 3-4 1v2l-4 2h-7l1-3 8-2 2-4 7-3h4v-2l10-4 15-8 22-9h2v-2l24-9 3-3 12-5 2-1-4 1-10 4-9 2v2l-12 4h-2v2l-12 3v2l-8 3-8 4-10 4h-2v2l-10 5h-5v2l-15 7-5 2-7 5-3 6-2 9 10 2 15 4 31 10 30 10 11 5 34 8h6l4-4 5-11 10-26 11-27 10-24 3-8 5-9 3-1 6 3 1 4 1-6 3-3 2-4 2 1-14 34-10 25-4 11-2 4 1 4 41 14 14 4 21 7 15 4v3l-1 4-2 2 3 4-9-1-19-5-31-10-34-11-7-1-10 27-6 8-5 4-2 1h-8l-30-8-5-2v2h-2l1-4-5-2v-2l9-1-1-3-9-3-13-4-7-2h-10l-7-1v-3l-3-1-1-3-10 1-11-3h-2v-2l-4-1v-2h-6v4h2v2l-11-2-9-2v12l8 20 9 19 9 15 9 12 6 7 16 12 2 1 4-7 1 2 6 1v1l-5 1-2 2 1 2-3 3h-7l-4-1-2 1v-2l-4-1-1-5-5-1-1-1-7-5-3 1-4-5 1-2-3-6-2-1v-3l-3 1-1-3 1-2-2-1v-5h-5l-2-4h2l-4-3-4-4 3-1h2v-2l-5-1-2-5-5-5v-3l5 2-1-7-4-2-2-3 1-4-1-4-3-1 2-1 1-13 1-7h-2v-3l-2-1 2-1-1-2h2l1-6 4 1 4-10-4-3-2 4-6-1 2-10 5-15 9-16 13-15 7-7 12-9 14-8 25-9 21-4 8-1h22l19 3 14 4h4l-10-5-9-2-4-4-2-6-13-2-5 4-5 2-3 4-10 2h-16v-2l12-1 7-3 2-3h-6l-2 5-5 1h-13l-1-1-2 2-5-1v2l-5-1-8-2-7 1-3 2-4 1v2l-3 1v7l-3 2-2-2v-6l-3-1 2-4 7-4 32-9z" fill="#CECFCD"/>
<path transform="translate(686,438)" d="m0 0h26l10 2 16 6v2l6 2 12 11 9 12 7 15 3 10 1 7v19l-3 12-10 18-4 4-7 8-7 6-15 7-14 4h-26l-16-4-13-7-11-9-9-11-9-17-4-11-2-9v-19l5-15 7-12 7-9 10-8 10-6 11-5z" fill="#214D68"/>
<path transform="translate(356,599)" d="m0 0h18l16 3 9 4 13 8 12 11 5 7 5 11 4 13 1 7v17l-3 13-7 13-7 9-7 8-10 8-15 8-42 18-12 6-5-1-3-6v-3l6-3 2-2v-7l-8-16-20-38-11-22-11-20-2-2-11-3-3-4v-3l12-5 27-12 28-12 12-4z" fill="#13364C"/>
<path transform="translate(0,770)" d="m0 0 6 5 3 8 2 3v4h2l3 10 3 5 7 19 6 8 4 10 6 12 3 8 5 10 7 18 5 8 7 14 3 5 5 5 6 19 2 5h2l5 10v2h2l11 22 4 12 6 14 2 1 4 10v7h-121z" fill="#979C9C"/>
<path transform="translate(1022,834)" d="m0 0h2v38l-8 5-5 5-6 2-5 5-10 8-13 7-5 4h-2l-1 3-13 3-12 6-5 2-7 2-4 1-1 3-6 4-7 5-17 8-8 3-10 5-5 4-16 9-13 8-11 6-5 4-9 4-8 5-12 1-6 2v2l-9 6-8 6-4 6-2 1-2 7h-119v-3l6-1v-2l6-2v-2l7-3 9-6 11-5 3-3 10-2v-2l5-3 7-2h4v-2l8-4h4l1-3 10-4 5-1v-2l13-5 8-7 5-1 9-4 9-5 7-2 1-2 8-2h4v-2l8-2v-2l11-4 3-2h3l1-2 19-9 3-3 10-3 5-4 9-5 8-2v-2l8-1 1-3 12-5 3-4 8-3h4v-2l12-6 8-2v-2l8-3 2-2 7-3h3v-2l11-4 4-4 5-2 7-4 5-2 10-6 5-1 2-3 3-1 1-2z" fill="#979C9C"/>
<path transform="translate(197,157)" d="m0 0h2v2l-5 3-1 4h3l-1 2v1h6l1 4-5-1-2 1 1 2h-2l-1 5h5l-1 7h-2l-1 4-4 2v4l-6 4 2 6 5 4 1 10h-2l-1 3-2 1 1 2-2 5 3-3 2-3 6-1 1 5 1 4-70 32-19 8-11 5-26 12-11 5-23 10-25 10-12 6h-2v-78l16-6 16-8 18-8 13-6 7-3 19-8 11-5 15-7 50-22 20-9z" fill="#8EABB7"/>
<path transform="translate(502,525)" d="m0 0h18l9 4 8 7 3 5 1 5v10l-2 10-3 5-4 3-11-2v-18l-4-8-7-3-7 1-6 3-3 3-1 6 3 7 6 6 7 3 12 6 23 10 10 4 7 3h5v-18l-4-8-4-3h-8l-2-5 5-4 23-10 16-8 3 3v12l-9 4-3 4-2 40 11 2h12l7-4 3-5 1-13v-7l4-1 3 3 5 9 1 4v11l-9 17-9 7-10 4h-11l-16-3-1 5-7 11-6 8-7 8-9 5-13 4h-19l-12-5-9-6-8-9-4-8-1-5v-17l3-9 8-10 6-6-1-3-10-7-6-8-3-7v-17l4-9 7-8 14-7z" fill="#13364C"/>
<path transform="translate(490,407)" d="m0 0 10 2 43 14 22 7 19 5 4 3-1 7-3 5-6 5-10 5-10 4-14 7-11 5-20 9-10 5-36 16-31 14-11 4h-14l-12-6-1-1 1-7 3-11h2l1-9 8-21 5-15 3-7 3-9 17 4 18 5h8l6-4 4-5 4-8 8-22z" fill="#62A4BB"/>
<path transform="translate(496,301)" d="m0 0h8l8 4 2 2-2 11-5 10-3 10-4 9-6 15-5 11-8 20-9 23-7 14-3 2-11-1-29-7-13-6-32-10-20-7-18-5-14-4 1-9 4-7 8-6 13-5 6-2v-2l15-5v-2l12-5 9-5 7-1v-2l9-3h3v-2l11-4h3v-2l16-6 4-2 4 1-7 4-10 3-1 3-14 5-7 3h-3v2l-26 11-19 10h-4v2l-11 4-4 4-6 1v2h6l4-1v-2l4-2 1-2 15-5 8-5 9-3 5-5 12-3 8-5 10-2 10-3 4-1h3l2 1v8h12l3 2 3-1 2-4h20l1 3h2l-1 5h-3l-3-5-6 1-9 4-13 5-23 10-17 9-12 7h-2v3h3l1 5 6-2 22-9 14-7 11-4 15-7 5-2 8 1 3 3 1 3h2l-2 12-6 12-4 9h-2v10l2-4 2-9 3-4h2l3-10 4-9 2-7h2l1-6 4-11 4-8 3-8 5-14 3-7v-5l-4-3-13 1-16 6-9 3v2l-14 5-3-1 4-4 5-2h4v-2l11-4 5-1v-2l10-4z" fill="#61A3BA"/>
<path transform="translate(424,261)" d="m0 0h28l5 1v2h11v2l9 1 13 5 6 3v2l5 2 9 4 8 3 5 4 1 4-6-2-13-6-19-9-15-6-11-2-16-1h-24l-18 3-32 9-7 4-1 3 2 1 2 7 2-1v-7l4-1v-2l10-5 10 1 7 3v-2l8-2v2l5-1h13l2-5 7-1-3 5-7 3h-12v2l16-1 12-3 2-4 7-3 3-2 12 2 2 2 2 6 2 1v2l12 2 8 5v1l-9-1-15-4-14-2h-22l-25 4-24 8-16 8-11 8-12 11-11 13-7 12-5 13-6 21-2 11v25l4 16 7 19 5 10 11 17 12 13 3 3v2l4 2 8 6 11 9 3 3-1 7-3 9-5-1-14-8-11-8-11-9-11-11-11-14-9-14-9-21-4-13-3-18v-26l6-28 6-16 12-24h2l2-5 14-16 7-7 3-1 1-2h3v-2l8-4h3v-3l7-4 5-2 8-4h5v-2l16-4 9-2 6-2h6v-2z" fill="#959A9A"/>
<path transform="translate(0,722)" d="m0 0 4 2 3 6v2h2v2h2l5 9 9 15 4 11 4 6 4 11 8 14 23 46 4 10 1 2v6h2l9 17 5 8 5 13 8 16 3 4 1 5 3 1 1 6h2l2 9 2 3v3l3 1 4 12 5 12 8 16 4 12 4 8 2 8 1 6h-26l-2-9-2-4v-4l-3-1-7-16-5-15-6-10-2-7h-2l-5-10v-2h-2l-5-10-4-14-6-7-8-14-9-18-8-20-3-5-3-8-7-14-3-7-5-7-7-20-3-5-1-7h-2l-3-7-4-9-4-4z" fill="#797E7F"/>
<path transform="translate(689,459)" d="m0 0h17l12 4 11 7 7 7 7 10 6 14 3 11v18l-4 10-7 9-8 7-9 4-7 1h-21l-11-4-9-6-7-7-11-16-5-16-1-4v-21l5-10 10-10 14-6z" fill="#CDCECC"/>
<path transform="translate(1020,816)" d="m0 0h4v18l-5 1-1 3-3 1-2 3-7 2-9 6-7 3-5 3-6 2-2 3-8 3h-3v2l-11 5-5 3h-4v2l-12 5-5 3h-3v2l-8 3h-4l-2 4-10 5-3 1-3 3h-6v2l-10 4-7 4-5 4-10 3-5 4-17 8-14 7h-4v2l-3 2h-5v2l-8 2h-4l-1 3-8 3-8 4-9 4-9 3-1 3-8 4-8 2v2l-15 6-1 2-7 3-5 1v2l-11 3-5 2v2l-4 2-8 1-1 3-12 6-11 7h-4v2l-6 2v2l-6 1v3h-40v-2l7-2v-2l9-2v-3l16-9 8-4h4l1-3 6-3 2-2h3v-2l8-3 4-3 10-4 9-3 2-3 7-4 10-3 8-3h2v-2l8-2v-2l8-4 7-3 2-2 5-2 2-2h7l1-3 6-4 8-2 10-4 20-10 8-2v-2l8-3 1-2 14-5 2-2 6-2 1-2 8-3 7-1 1-3 4-2 1-2 10-3 9-6 7-3 7-4 9-2 1-3 10-3 5-2 3-3 6-2 5-3h4v-2l7-1 1-3 22-12 6-2h3v-2l12-5 7-2 1-2 7-4z" fill="#646A6A"/>
<path transform="translate(618,265)" d="m0 0h11l15 4 6 3v2l5 1 5 4v2h2v2h2l7 12 3 11v12l-2 10-6 11-9 10-9 6-15 5h-18l-12-3-12-6-5-4-9-14-3-9v-19l4-11 6-9 6-7 4-1v-2l12-7z" fill="#E7EBEA"/>
<path transform="translate(352,622)" d="m0 0h19l10 3 11 6 9 9 8 15 4 12v19l-4 12-9 12-10 7-13 6-11 5h-6l-13-25-20-40-3-9-8-15-1-4 24-10z" fill="#CDCECC"/>
<path transform="translate(90,204)" d="m0 0h2l3 7v4h3v2l8 2 3 10 2 5-1 2 1 6-2 1-2-5-3-1-1 4 2 4h-5l-4-4 2 3v5l-3 2-3-6v-2h-2l2 6-4-2-1 2-2-4-2 1 3 6-4-1-2-5h-2l3 10 6-1-9 9v3l-5 4-2 2-6-1 2 4v3l-1 2-4-1 1-5-5-1-1 5 1 4v2 3h-2l-3-4-2-2-10 2-2 2 5 2 5 3v-2l6 1v3l3 1-1 4-11 5-29 12-15 7h-2v-78l16-6 16-8 18-8 13-6 7-3 19-8z" fill="#89A1AC"/>
<path transform="translate(526,315)" d="m0 0 2 1-14 34-10 25-4 11-2 4 1 4 41 14 14 4 21 7 15 4v3l-1 4-2 2 3 4-9-1-19-5-31-10-34-11-7-1-10 27-6 8-5 4-2 1h-8l-30-8-5-2v2h-2l1-4-5-2v-2l9-1-1-3-9-3-13-4-7-2h-10l-7-1v-3l-3-1-1-3-10 1-11-3h-2v-2l-4-1v-2h-6v4h2v2l-11-2-9-2v12l8 20 9 19 9 15 9 12 6 7 16 12 2 1 4-7 1 2 6 1v1l-5 1-2 2 1 2-3 3h-7l-4-1-2 1v-2l-4-1-1-5-5-1-1-1-7-5-3 1-4-5 1-2-3-6-2-1v-3l-3 1-1-3 1-2-2-1v-5h-5l-2-4h2l-4-3-4-4 3-1h2v-2l-5-1-2-5-5-5v-3l5 2-1-7-4-2-2-3 1-4-1-4-3-1 2-1 1-13 1-7h-2v-3l-2-1 2-1-1-2h2l1-6 4 1 4-10-4-3-2 4-6-1 2-10 5-15 3-3h5v2l-4 2 1 9 3-1 1 3 1 6-3 1 5-1-2-6 2-5 4-3 3-1 2 4 2 1-3 3-3-2 1 3-2 7-7 5-3 6-2 9 10 2 15 4 31 10 30 10 11 5 34 8h6l4-4 5-11 10-26 11-27 10-24 3-8 5-9 3-1 6 3 1 4 1-6 3-3z" fill="#E8EBEB"/>
<path transform="translate(450)" d="m0 0h25l-1 2-25 10-13 6h-2v2l-12 5-11 5-28 14-20 8-15 7-20 8-11 6-13 5h-4v2l-5 2h-3v2h-4v2h-4v2l-11 3-5 3-14 5-10 6-16 6-8 2v2l-12 5-15 7h-3v2l-10 3v2l-12 5-15 6-5 1v2l-8 4-6 2-17 8-5 1v2l-8 3-12 6-11 5-10 4h-3v2l-16 6-13 5-9 2-11 4-15 5h-4v-10l12-5 21-8 8-3 19-8 11-5 19-8 9-4 11-5 16-7 10-4 12-6 10-4 11-5 16-7 15-6 12-5 6-4 10-4 26-11 14-5 10-5 7-3 11-5 12-4 32-15 17-6 5-3h4v-3l13-4 25-12 13-6 9-4h2v-2l17-8z" fill="#646A6A"/>
<path transform="translate(528,313)" d="m0 0 5 1 10 17 6 9v4h2l3 8 2 4h2v4h2l8 15 3 5v2h2l4 6 3 9 4 9 3 9v7l-7-1-17-5-11-4-15-4-38-13-2-2 1-6 3-6 5-13 13-33 8-19z" fill="#87B9C9"/>
<path transform="translate(632)" d="m0 0h112l-4 1-1 2-20 8-1 4-3-1-4 3-9 1-12 5-3 1v2l-10 3-4 1-1 2h-4l-1 5-2-1v-2l-8 3-7 3-1 2-6 2h-4l-1 3-9 2-15 7-5 1-1 2-6 3-6 1-5 1-1 2-5 2-13 5-5 1v2l-4 2-2 4v-2l-7 1-4 2h-3l-1 3-7 2-14 6-16 6-5 3-11 4-12 5-9 4h-2v2l-13 5-9 4-10 5-7 4-7 2-7 3-7 2v2l-6 2-4 4h-4l-4 2-6 1-11 5-16 8-7 2-1 2-10 3-9 4-5 2-6 3-19 9-24 11-12 4-16 8-15 6-3 2-7 2-11 6-7 1-1 2-5 2-11 5-5 2h-3v2l-13 5-26 13-16 6-10 4h-2v2l-5 2-8 4-8 3-12 5-5 3h-4v2l-7 1v-2l9-4 20-9 15-7 21-9 24-11 35-16 27-11 15-7 20-9 18-8 16-6 14-7 22-10 8-4 9-4 15-6 9-4 24-11 25-11 11-5 13-5 15-7 15-6 4-3 10-4 13-5 8-4 18-7 8-4 26-11 27-12 20-8 6-3h4l1-2 10-5 5-4-2-5-1-20-2-4 2-2v-6l1-2 6 1z" fill="#C0D1D6"/>
<path transform="translate(325,405)" d="m0 0 14 3 66 22 5 3-1 8-5 11-9 28-5 15-5 10-7-4-14-11-10-12-10-16-9-17-10-24-1-3v-12z" fill="#61A3BA"/>
<path transform="translate(475)" d="m0 0h19l-1 2h-3v2l-11 4-8 4-2-1-1 2-9 2-7 2-1 2-5 2-8 4-1 2h-5l-1 2-2-1-1 3-6 1-8 4-9 4h-2l-2 4-9 2-10 5v2l-8 3-9 3-11 5-19 8-3 2h-4l-1 3-7 3-2 1v-2l-19 9-10 5-12 4h-2l-1 2-10 4h-2v2l-10 4-9 4-4 4h-7l-10 5-3 2-3 1-4 2-4 1-2 2h-4v4l-9 1-1 2-13 5h-2v2l-8 4-1 2-9 1-6 3-1 2-9 3v2l-9 5-7 3-5 3-10 4-9 4-7 3 1 2-7 1-7 4-4 1-8 4-2 3-7 1-5 2h-8l-1 3-8 3-5 1-6 3-7 2-15 3h-7v-9l9-2 5-3 11-3 8-3 8-2 11-4 13-5h3v-2l13-5 11-5 16-8h4v-2l20-9 3-2 9-3 4-1v-2l8-3 12-5 9-4h3v-2l6-3h4v-2l12-5 8-4 10-3v-2l19-7 14-7 11-5 16-6h4v-2h4v-2h4v-2l4-2h4v-2l15-5 8-4 9-5 16-6 11-5 24-10 24-12 15-7 10-4h2v-2l10-5 30-12z" fill="#979C9C"/>
<path transform="translate(574,16)" d="m0 0h8l5 8 2 7 4 8 1 5-6 5-10 1-1 2-9 4-2-1-1 2-12 6-7 2-3 3-7 3-7 1-13 6-11 4-10 4-10 5-14 6-2 1v-2h-2l-4-8-1-4h-2l-3-6v-2h-2l-1-7 6-1 1 1 1-3 7-2 3-2h2l2-3 6-2h5l5-4 9-1 1-2 6-2 4-1 1-2h2l4-4h5l16-8 5-1 1-1 11-7 11-4h2v-2z" fill="#E9ECEB"/>
<path transform="translate(998,806)" d="m0 0 3 1-1 4-6 4h-2l-2 5-6 2v2l-9 3-6 3-10 4h-3v2l-12 5-1 3-10 3-5 3-7 3-9 5h-4v2l-9 4-10 4-10 5-7 3-10 1-2 4-4 2-14 9h-6v2l-9 4-8 1-4 5h-5v2l-6 4-6 1v2l-9 1-2 1-3 6-7 2-12 6-10 2-3 1-2 4-12 5-3 3-11 4-6 4-7 2-2 3-9 3-10 3-1 2-5 1v2l-7 3-4 3-14 6-2 2-9 3-4 4-9 3-9 5-6 4-8 5-7 3-4 3h-3v2h-4l-1 3-13 3v2l-5 2h-25l4-3 24-12 39-19 9-2v-2l6-2 3-3 15-7 8-3 19-10 16-8 17-8 44-22 10-3v-2l11-4 5-3h3v-2l9-4 4-1v-2l16-6 2-2h4v-2l26-13 10-4 6-4 8-3 12-6 7-2v-2l21-9 13-7h3v-2l10-4 7-4 10-4 5-1v-2l11-5h3v-2l10-4h3v-2l9-4z" fill="#404F56"/>
<path transform="translate(499,304)" d="m0 0h7l5 4-1 7-6 17-3 6-6 14-5 15h-2l-2 9-7 17-4 4-2 9-2 6-2-4 1-8h2l1-4 5-12 3-5 3-12-3 1-2-5-5-2-6 1-12 5-13 6-10 4-15 7-19 8-3-1v-5h-3v-3l16-9 17-9 24-10 10-4 11-5 5 1 4 5 2-5h-2l-1-2h-20l-2 3h-2l-1 2-3-2h-9l-3-1-1-3v-5l-2 1-5-1-10 4-8 1-10 5-7 3h-6l-2 4-4 3-10 3-8 5-9 3h-4l-1 3-4 1v2l-4 2h-7l1-3 8-2 2-4 7-3h4v-2l10-4 15-8 22-9h2v-2l24-9 3-3 12-5 2-1-4 1-5 1 3-3 7-1v-2l5-1-3 3 10-3 6-1v-2l9-4 16-6z" fill="#89B9C8"/>
<path transform="translate(496,301)" d="m0 0h8l8 4 2 2-2 11-5 10-3 10-4 9-6 15-5 11-8 20-9 23-7 14-3 2-11-1-29-7-13-6-32-10-20-7-18-5-14-4 1-4 7 1 27 8 17 4 21 7 3 2h12l4-2v-2l7-2 15-4 9-4 5-1 1-3 2-1 1-4v-3-2l4-1v-2l-16 7-15 7-18 7-10 4-2 1h-6l1-5 4-4 4-2 1-3-2-1 8-4 15-6 14-7 11-4 15-7 5-2 8 1 3 3 1 3h2l-2 12-6 12-4 9h-2v10l2-4 2-9 3-4h2l3-10 4-9 2-7h2l1-6 4-11 4-8 3-8 5-14 3-7v-5l-4-3-13 1-16 6-9 3v2l-14 5-3-1 4-4 5-2h4v-2l11-4 5-1v-2l10-4z" fill="#61A3BA"/>
<path transform="translate(0,722)" d="m0 0 4 2 3 6v2h2v2h2l5 9 9 15 4 11 4 6 4 11 8 14 23 46 4 10 1 2v6h2l9 17 5 8 5 13 8 16 3 4 1 5 3 1 1 6h2l2 9 2 3v3l3 1 4 12 5 12 8 16 4 12 4 8 2 8 1 6h-11l-4-9-3-9-6-13-1-7h-2l-4-12-8-17-7-13-5-8-6-12-1-6h-2l-4-9-5-6-4-12-5-8-5-10-3-8-4-7-4-9-3-7-2-7-6-11-6-13-4-9-7-13v-3h-2l-6-12-2-5-7-13-6-7-2-1z" fill="#646A6A"/>
<path transform="translate(0,696)" d="m0 0 4 1 5 7 11 23 6 10 3 4 3 10 5 6 16 34 6 8 8 20 11 23 5 12 5 7 1 9h2l6 12 4 10 5 8 5 10 5 13 8 16 5 12 4 8 2 7 8 16 7 20 4 16 1 6h-8l-3-8-2-8-4-8-3-10-8-16-5-12-4-12-2-1-3-6-1-9h-2l-2-6-3-3-3-6-3-4-8-18-5-12-6-9-5-10v-2h-2l-2-8-8-18-23-46-6-10-3-9-4-6-4-11-6-9-6-11v-2h-2v-2h-2l-5-9-2-1z" fill="#525A5A"/>
<path transform="translate(1023,825)" d="m0 0h1v9l-5 1-1 3-3 1-2 3-7 2-9 6-7 3-5 3-6 2-2 3-8 3h-3v2l-11 5-5 3h-4v2l-12 5-5 3h-3v2l-8 3h-4l-2 4-10 5-3 1-3 3h-6v2l-10 4-7 4-5 4-10 3-5 4-17 8-14 7h-4v2l-3 2h-5v2l-8 2h-4l-1 3-8 3-8 4-9 4-9 3-1 3-8 4-8 2v2l-15 6-1 2-7 3-5 1v2l-11 3-5 2v2l-4 2-8 1-1 3-12 6-11 7h-4v2l-6 2v2l-6 1v3h-17v-3l9-4 3-3 5-1v-2l7-3 9-6 6-1 1-2 5-2 1-3 9-3 10-5 3-1 3-3 6-2 22-11 13-5 16-9 8-4 2-2 7-1v-2l11-3 8-5 9-3 8-3 12-6h4v-2l6-3h4l2-4h4v-2l13-4 9-6h2v-2l9-3 9-6 5-2 10-6 10-3 4-2 3-3 8-3 6-3 4-3 14-5h2v-2l5-3 10-5h3v-2h2v-2l7-2 6-4h3v-2l7-1 2-3h7l1-4 8-3 1-3z" fill="#797E7F"/>
<path transform="translate(1019,808)" d="m0 0h5v8l-5 2-10 8h-3l-1 3-10 3-9 3v2l-9 3-22 12-1 2-7 1v2l-7 3-3 2-7 1-1 3-11 4-4 1-3 3-8 3-14 7-9 5-9 2-1 3-4 2-1 2-7 2-4 2h-4l-2 4-6 2-10 4-5 1-2 4-7 1v2l-3 2-9 3-12 6-10 4-6 3-7 2-5 3-1 2-7 1-3 3-5 2-4 3-7 3-5 1v2l-4 2h-4v2l-16 6-7 3-4 2-2 3-9 3-12 5-3 3-7 1v2l-5 3-6 3-1 2h-4l-1 2-16 8-5 3h-2v3l-5 2h-4v2l-4 2h-3v2h-19l3-3 19-9 10-5 5-5 6-1v-2l4-2h4v-2l4-2h4v-2l10-5 5-2 2-2 5-2 2-2 7-3 9-5 8-3 10-5h6v-2h2v-2l10-2v-2l8-4 7-2 3-3 14-7h4l2-4 4-1 2 1v-2l3-2 11-3 6-3 12-7 7-3 15-7 10-3v-2l10-4 13-7 8-5h5v-2l8-4 10-3v-2l10-5 14-5h2l1-3 6-2 4-3 13-6 7-2 1-2 10-3 3-3 5-3 9-3 7-4h4v-2l6-3 8-1v-2l8-5 1-1h5l1-4h3l2-4z" fill="#525A5A"/>
<path transform="translate(618,265)" d="m0 0h11l15 4 6 3v2l5 1 5 4v2h2v2h2l7 12 3 11v12l-2 10-6 11-9 10-9 6-15 5h-18l-12-3-12-6-5-4-9-14-3-9v-19l4-11 6-9 6-7 4-1v-2l12-7zm2 12-12 4-8 5-8 8-5 10-1 3v14l4 10 9 10 10 5 6 2h18l11-4 9-6 6-7 4-11v-13l-8-16-7-7-13-6-4-1z" fill="#4A88A0"/>
<path transform="translate(426,7)" d="m0 0 4 1-5 4 3 1-11 5-23 11-15 7-10 3h-3v3l-7 3-14 5-13 6-23 10-9 4-14 5-4 3-13 5-11 5-13 5-22 9-10 5-7 4-16 6-21 9-11 5-12 5-16 8-16 6-5 3-10 4-9 4-19 8-21 9-10 5-16 5-12 5-12 4v-10l20-6 13-4 9-5 15-5 11-5 11-4 9-4 6-1v-2l10-4 7-3 12-6 12-5 15-6 4-3 13-5 6-3 12-4 12-6 9-4 15-7 12-5 21-8 16-8 13-6 18-7 14-5 10-5 18-8 11-4 7-4 6-2h4v-2l11-4 3-2h5l1-3 16-7 10-5z" fill="#979C9C"/>
<path transform="translate(420,267)" d="m0 0h24l16 1 13 3 13 5 38 18-3 2-3 1-4-3h-2l-5-1-3 1v2l13 1 5 2v8l-3 1 1 2h-2l1 4-2 3-1 2-2-1-1 2-2-2 2-11-6-4-5-2h-10v-2l-8 3-6 1-5 3-5 1-5 2-3-1 1 3-4 1h-4l-2-4 2-4v2h3l1 2 3-3h2l1-6v-2l3-1 4 1 3-5-11 1-2 1v-2l-5 1-4-1-13-1-19 1-4 2v-2l-2 1-10 1-9 3-4 2-14 4-6 3v2l-4 1-2 2 1 2h-3v3l-4 2-3-1-4 7h-3l2 2-3 1 2 2-8 5v2l-6 3v-2h-3l-1 2 1-4 11-13 7-7 12-9 14-8 25-9 21-4 8-1h22l19 3 14 4h4l-10-5-9-2-4-4-2-6-13-2-5 4-5 2-3 4-10 2h-16v-2l12-1 7-3 2-3h-6l-2 5-5 1h-13l-1-1-2 2-5-1v2l-5-1-8-2-7 1-3 2-4 1v2l-3 1v7l-3 2-2-2v-6l-3-1 2-4 7-4 32-9z" fill="#E8EBEA"/>
<path transform="translate(532,709)" d="m0 0 4 2 4 9 4 8 10 19 3 5 2 6-1 5-6 3-4-2-14-24v-2h-2v35l-5 1-9-7-20-11 1 3 6 12 5 13v3l-7 3-4-1-8-15-8-16-10-16-1-4 9-4 3-2 4 1 13 9 13 8 6 1-1-13-1-4v-18z" fill="#102535"/>
<path transform="translate(615,288)" d="m0 0 1 2 3-1 12-1 5 1 8 6 5 5 2 7v12l-5 10-9 6-9 3h-10l-8-3-8-8-4-10 1-9 3-7 3-1 1-4 5-5z" fill="#508DA5"/>
<path transform="translate(725)" d="m0 0h19l-4 1-1 2-20 8-1 4-3-1-4 3-9 1-12 5-3 1v2l-10 3-4 1-1 2h-4l-1 5-2-1v-2l-8 3-7 3-1 2-6 2h-4l-1 3-9 2-15 7-5 1-1 2-6 3-6 1-5 1-1 2-5 2-13 5-5 1v2l-4 2-2 4v-2l-7 1-4 2h-3l-1 3-7 2-14 6-16 6-5 3-11 4-12 5-9 4h-2v2l-13 5-9 4-10 5-7 4-7 2-7 3-7 2v2l-6 2-4 4h-4l-4 2-6 1-11 5-16 8-7 2-1 2-10 3-9 4-5 2-6 3-19 9-24 11-12 4-16 8-15 6-3 2-7 2-11 6-7 1-1 2-5 2-11 5-5 2h-3v2l-13 5-26 13-16 6-10 4h-2v2l-5 2-8 4-8 3-12 5-5 3h-4v2l-7 1v-2l9-4 20-9 15-7 21-9 24-11 35-16 27-11 15-7 20-9 18-8 16-6 14-7 22-10 8-4 9-4 15-6 9-4 24-11 25-11 11-5 13-5 15-7 15-6 4-3 10-4 13-5 8-4 18-7 8-4 26-11 27-12 20-8 6-3h4l1-2 13-6 10-4 18-8h5v-2l9-4 12-5 13-5 9-4 7-3 18-8z" fill="#EBEEED"/>
<path transform="translate(574,16)" d="m0 0h8l5 8 2 7 4 8 1 5-6 5-10 1-1 2-9 4-2-1-1 2-12 6-7 2-3 3-9 3v-5l-9-1-9 1-3 3h-4v-4l-2 4-5-1-3-6h2v2h2l1-3 2 1 1-2v2h2l2-6 5-2h7l1-2 7-1-1-3 3-1 7-1v4l4-4-4-2h8l4-5 5-2-4-1-3-2v-2l2-2v-3l10-5 8-2v-2z" fill="#D1D2D0"/>
<path transform="translate(507,598)" d="m0 0 7 1 13 5 15 7 15 6 3 3-1 6-8 10-10 6-5 2h-18l-8-4-8-9-3-7v-12l5-10z" fill="#CBCDCB"/>
<path transform="translate(314,63)" d="m0 0 5 1-3 3h-4v2l-12 5h-4v2l-9 4-10 3-13 7h-4v2l-11 3v2l-19 9-10 3-16 8-12 5h-4v2l-8 1v2l-8 3h-4v2l-20 10h-4v2l-4 2h-4v2l-8 3-8 4-19 8-11 5-7 4-9 3-10 5-11 3-14 7-15 4h-4v2l-6 1-1-1-1 2-12 2 1-4 16-6 19-7 7-3 17-7 11-5 19-8 9-4 11-5 16-7 10-4 12-6 10-4 11-5 16-7 15-6 12-5 6-4 10-4 26-11 14-5 10-5 7-3 11-5 12-4z" fill="#52595A"/>
<path transform="translate(424,261)" d="m0 0h28l5 1v2h11v2l9 1 13 5 6 3v2l5 2 9 4 8 3 5 4 1 4-6-2-13-6-19-9-15-6-11-2-16-1h-24l-18 3-32 9-5 3-7 3-3 1v2l-10 5-3 1-1 3-8 7-10 10-7 9-9 16-3 7h-2l-2 9-3 9-3 16-2 10v26l2 22 6 18v2h2l5 12 8 11 4 5v2l7-1 2-1v8l2 5 4 2 4 4 8 7 2 4 4 2 6 5 10 5h4v3l3-1v4l-5-1-14-8-11-8-11-9-11-11-11-14-9-14-9-21-4-13-3-18v-26l6-28 6-16 12-24h2l2-5 14-16 7-7 3-1 1-2h3v-2l8-4h3v-3l7-4 5-2 8-4h5v-2l16-4 9-2 6-2h6v-2z" fill="#20323E"/>
<path transform="translate(586,685)" d="m0 0h4l7 8 12 11 10 9 11 9 4 4v2l-10 3-5-1-6-5-5 1-10 5-5 1v14l-9 4h-3l-1-2-3-42-1-17z" fill="#102635"/>
<path transform="translate(592,539)" d="m0 0 3 3v12l-9 4-3 4-2 40 11 2h12l7-4 3-2-1 4-6 5-2 1h-11l-14-2-9-4-1-1-13-2-14-7-8-3-11-5-3-1v-2l-6-1-11-5v-2h-3v-2l-5-2-5-9v-8l2 4 3 7 6 6 7 3 12 6 23 10 10 4 7 3h5v-18l-4-8-4-3h-8l-2-5 5-4 23-10z" fill="#102534"/>
<path transform="translate(490,407)" d="m0 0 10 2 43 14 22 7 19 5 4 3-1 7-2 1v-7l-6-2-14-3-13-4v-2l-11-2-10-2-7-3-4-1v-2l-9-2-14-5h-6l-5 15-7 14-3 5-5 5h-13l-19-3-5-2v-2h-10l-1 8-6 15-1 9-5 14 1 3 6-1-2 5 5 1v3h2l1-5h2v2h2l1-2 2 4-3 10-4 3h-3l-1 5 14-1v-2l12-2 9-4 13-5 18-8 11-5 3 1-19 9-36 16-20 8h-14l-12-6-1-1 1-7 3-11h2l1-9 8-21 5-15 3-7 3-9 17 4 18 5h8l6-4 4-5 4-8 8-22z" fill="#4A8BA5"/>
<path transform="translate(305,954)" d="m0 0 3 4 4 2-3 2v2l8 2v4l2 1 4 4-1 3-4-2 2 1v3l2 2-1 8 3 1-1 2-2-1-1 4-3-3-1-3h-12l-1 3 4 2v2h7l6 3v-3l5 2 4 1 2-1v3h-2v2h-5l-5-3 1 4h-3v2l5-1 2 1-1 4-4 4-4-1-3-4v-2l-4 1-2 1 5 11 1 3h-8l1-6-1-2v-9l-3-6-3 4-4 4h-5l-5 2-5-5v3h-5l-3-3v2l-6 1-2-4 2-3h4 1v-3l3-1 3 2v3l1-4h-2l-2-3v-6h2v2h5l-1-1-2-1v-4l2-2 5 1 3 2-1 2h2v3l4-1h3v3h-3l2 5h4l1-2-3-1 1-5 4 1v-5l-6-3-2 2v-2l-3-1-2-2v-4h-2l2-4 3 1v-1h13l2-1 1 2 4-2-1-1h-8l-5-1-3 2-4-2 1-2h2l-1-3h2l-1-4-2-1h2l1-2v3l4-1 2 2v3l3 1-1-2v-7z" fill="#9A9E9E"/>
<path transform="translate(343,404)" d="m0 0h6v2l4 1v2l4-1 11 3 9-1 1 4 2 1v3l5-1 7 1 9 1 12 4 13 5v2l2 1-4 1h-6v2l5 2v8l-3 9-5 12-5 15-4 10-2 9h-2v5h-2v-8h-6-2l-3 1 3-10 5-17 7-20 5-13v-4l-12-5-37-12-14-5-1-3h-2z" fill="#CECFCE"/>
<path transform="translate(271,462)" d="m0 0 7 1 1 3v8l-4 3-21 9-15 7-28 12-20 8-5-1-3-4v-7l5-3 11-4 14-7 10-4 10-5 8-3 9-4 5-1v-2z" fill="#4989A2"/>
<path transform="translate(625,494)" d="m0 0h2v21l4 15 9 19 7 9 6 7 13 9 11 5 13 3h26l17-5 15-8 9-9 4-6 3-3 10-19 6 2v-2l6 1-2 4h-1l-1 5-2 1-1 2h-2l-4-4 3 3 1 4-5 1v2l4 1 2 1-1 2-2 1-2-1v3h-3v2l2 1-4 2-1 3-2-1-2 7-1-2h-3l1 4-3-1-1-2-4 2v2l4 1v-2l2 1-3 4-5-1-2-1 1 3h-2v-2h-2l-1 2-3-2-3 2h-3l-1 6-5-1h-3l-2-1-1 2v-2l-6 3-13 1-16-1-18-4-11-6-11-9-10-11-7-12-7-18-2-13-1-5 1-8z" fill="#E7EAEA"/>
<path transform="translate(282,487)" d="m0 0h5l3 3v7l-7 6-16 6-24 11-16 6-11 5-14 5h-7l-2-5 1-6 17-7 21-9 15-7 12-5z" fill="#466471"/>
<path transform="translate(638,269)" d="m0 0 9 2 3 1v2l5 1 5 4v2h2v2h2l7 12 3 11v12l-2 10-6 11-9 10-7 5-13 1-1 2-8 2h-7l-4-2-7-2v-2h-6l-7-10 1-2 17 6h18l11-4 9-6 5-6 4-11h2l2-9-1-7-9-18-1-3-5 1-2-4h-7l-2-1-1-7-3-1z" fill="#62A1B7"/>
<path transform="translate(630,596)" d="m0 0h1l1 6-1 1-1 8v2l6-1v2h-2v2h-2l-2 7h-3v-2h-2v2h-2l-2-2-2-1 2 5-2 2-1-1-9 3-2 2h-3v2l-8-1v2h7v3l-3 1-3-1-2 2-2-2v-3l-8-1-5-1 1 4 3 2-1 5-3-2-1 2 2 2-6 1 3 3v4l-3-1 1-3-3 2-4 1-4 4-7 2 7 1-3 3-4-1-2 2-5-1-6 3 1 2-3 1-5-1-1 2-5 1v4h-13l-5-1-2 1v-3l-13-3-12-8-8-8-5-12-1-8v-11l4-9 3-6 1 2-3 9v17l3 9 6 9 8 7 13 6 3 1h19l13-4 9-5 6-7 11-15 3-5 1-4 10 1 6 1h11l10-4 9-7 8-16z" fill="#E5E9E8"/>
<path transform="translate(467)" d="m0 0h8l-1 2-25 10-13 6h-2v2l-12 5-11 5-28 14-20 8-15 7-20 8-11 6-13 5h-4v2l-5 2h-3v2h-4v2h-4v2l-11 3-5 3-14 5-10 6-16 6-8 2v2l-12 5-15 7h-3v2l-10 3v2l-12 5-15 6-5 1v2l-8 4-6 2-17 8-5 1v2l-8 3-12 6-11 5-10 4h-3v2l-16 6-13 5-9 2-11 4-15 5h-4v-3l16-5 11-3 7-3 12-4 20-8 16-6 2-2h3l1-2 10-4 10-5h4v-2l16-7 8-4 10-4 17-8 6-3h3v-2l7-2 13-6 12-6 10-4 12-6h6v-2l10-4 19-9 1-1h6v-2l9-4 9-3 14-7 11-4 16-8 5-3 10-3 8-4 11-4 3-2h4v-2l13-5 10-5 7-3 6-4 7-3h5v-2h4v-2l5-2h3v-2l8-2v-2l12-5 14-7z" fill="#797E7F"/>
<path transform="translate(307,328)" d="m0 0 1 4-6 11-4 10-5 14-5 25v26l4 21 5 15 9 20 10 14 12 14 9 9 13 10 18 11 12 5 9 3 4 4-15-2-18-7-10-7-11-7-3-2v-2l-4-2-4-3v-2l-3-1v-2l-4-1-6-9-4-4v-3h-2l-6-8v-3l-2-1-8-16-6-18-5-27-1-16 1-9 2-13 2-3 4-18v-2h3l-3-3 2-2h2l6-13h2l2-5 1-2h2z" fill="#E7EAE9"/>
<path transform="translate(686,438)" d="m0 0h26l10 2 16 6v2l6 2 12 11 9 12 7 15 3 10 1 7v19l-3 12-3 5-1-2 2-6 1-19-1-12-7-20-1-5h-2l-3-4v-3h-2l-3-5-8-7-10-7-11-5-10-3h-28l-15 5-12 5-10 8-10 11-3 8-4 7-2 8v16l3 8 3 3 3 13 2 7 5 6 3 6v2l4 2 15 13 4 2 1 4-5-1-11-7-8-7-8-10-9-17-4-11-2-9v-19l5-15 7-12 7-9 10-8 10-6 11-5z" fill="#0A1825"/>
<path transform="translate(420,267)" d="m0 0h24l16 1 13 3 13 5 12 6-3 3-2 7-5 1v-3l-10-4-8-2-4-4-2-6-13-2-5 4-5 2-3 4-10 2h-16v-2l12-1 7-3 2-3h-6l-2 5-5 1h-13l-1-1-2 2-5-1v2l-5-1-8-2-7 1-3 2-4 1v2l-3 1v7l-3 2-2-2v-6l-3-1 2-4 7-4 32-9z" fill="#CACBC9"/>
<path transform="translate(0,642)" d="m0 0 1 2h2l1 4 1 3 2 1v4l2 1 3 7 2 6 4 9 9 19 6 10 4 11 1 4 3 1 1 4 4 10 4 9 11 24v2h2l6 13 2 1v5h2l4 11 8 16v3h2l5 13v3l2 1 3 4 3 9 3 5 2 5 3 9 3 4v2l5-1v5l-2-1 1 4 2-1 1 8 1 4 2 1 3 3 1 5h2l3 4-1 5 2 3-1 3 3 1 4 5 1 4v4l8 17h3l4 1 3 2-2 4-3 1 1 1 3 4v8l2 1 1 4h2l3 5-1 1 2 1 1 7 4 5 2 1 1 8 6 10 3 4v6h-4l-2-8h-2l-4-10v-2h-2l-4-11-4-9v-2h-2l-7-16-12-26-8-17-8-16-4-9-8-17-8-16-5-12-8-17-6-12-4-9-4-7-4-11-8-15-7-15-11-23-11-24-4-9-4-7-4-10-3-4-2-8h-2l-3-9-7-14-5-12z" fill="#959A9A"/>
<path transform="translate(295,510)" d="m0 0h5l1 2v8l-5 4-13 6-24 10-23 10-19 7-1 1h-5l-4-5v-5l8-4 19-7 15-7 24-10z" fill="#456471"/>
<path transform="translate(587,444)" d="m0 0 1 2 3 1-2 6-2 1v2h-3v2l-7 3-11 5h-2v2l-7 3h-4l-1 2-10 4h-2l-1 2-7 4h-3l-2 2-5 4-2-1-2 1-2 3-1-2-8 4v3l-6-1-1 4-4-3v3l-6 2-4 2-7 1v4l-7 1-7 3-4 2-1 2h-2v2h-8l-6 3-6 2-4 2-3 2-4 1h-19v-2l-6-2-6-4v-2h-2v-5h2l1-2 2 5 12 6h14l20-8 42-19 25-11 16-8 11-5 5-2 16-8 12-5 10-6 3-3z" fill="#E5EAE9"/>
<path transform="translate(689,459)" d="m0 0h17l12 4 11 7 7 7 7 10 6 14 3 11v18l-1 3h-2l-1-7 1-5-1-3v-3l-5-16-7-13-9-10-8-6-9-4-17-2-5 2h-6l2 5 1 3 3-2 2-2h4l-1 3h4v2h-2v2l-8 1-4-4-5-1h-1v3l3 1-2 2 1 4-5 5h-3v6l-2-2-1 4-4 1-6-4v-2h-5v-7l5-8 9-9 14-6z" fill="#E8EBEA"/>
<path transform="translate(674,640)" d="m0 0 4 1 9 16 7 16 2 4v3l20-9 5 1 4 7-1 4-25 11-5 3-4-1-12-23-7-12-6-11-1-4 8-4z" fill="#091622"/>
<path transform="translate(471,346)" d="m0 0 5 1 3 5-2 6-15 6-16 8-8 3-13 6-24 10-5 1v-6h-3v-3l16-9 17-9 24-10 10-4z" fill="#E5E9E8"/>
<path transform="translate(697,442)" d="m0 0h17l13 4 16 9 6 5 5 5 2 5h2l3 5 5 14-1 4-7 1-6-8v-2l-5-1-5-3-5-5-1-4-3-1v-2l-4-2v-2l-5-2h-4l1-3-3-3v-2h-2v-2l-4-1-3-3-7-2-6-1z" fill="#446371"/>
<path transform="translate(509,528)" d="m0 0 12 1 6 3 6 5 2 4 3 3 1 5v9l1 5-4 8-4 3-11-2v-18l-4-8-7-3-7 1-6 3-3 2-1-4 1-5h2v-4h-2l2-4 7-3z" fill="#214D68"/>
<path transform="translate(933,205)" d="m0 0 4 4 13 25 9 16 8 16 8 14 1 1v-6l-4-4-2-9-5-7v-3h-2l-3-11-5-5v-2l-4-2-3-6-4-4-1-6 8 1 5 2 1 7 7 10 4 11 4 4 3 6 2 3 3 9 4 5v11l-3 3-1 2 4 2 1 6 11 21 9 16 1 3 2 1-1 2 3-1v3h2l4 13 4 5h4v15l-2-3-8-14-2-3v-3l-2-1-8-16-4-7v-3l-2-1-8-15-4-7-1-3-2-1-6-13-6-10-6-12-5-8-5-9v-2l-3-1-1-5-8-16-6-10-2-5z" fill="#EBEEED"/>
<path transform="translate(356,599)" d="m0 0h18l16 3 9 4 13 8 12 11 5 7 5 11 4 13 1 7v17l-3 13-3 5h-1l1-14v-17l-3-18-5-11v-3h-2l-1-5h-2l-3-5-9-8-3-1v-2l-7-1-3-3-12-3-1-1-9-2h-18l-19 5-6 1v2l-13 5-9 5h-4v2l-13 5-17 7v3l-3-1-1-5 12-5 27-12 28-12 12-4z" fill="#0B1926"/>
<path transform="translate(688,632)" d="m0 0 4 4h3v2l5-1 2 4 2 1-1 3v-2h-4l4 4 3 1 1 5 6 1 1 5 2 2h3l-1 6 2 3-21 10h-3l-4-9-7-15-8-15 1-3 2 2-1-5 5-1v2l5-1-2-2z" fill="#EAEDEC"/>
<path transform="translate(835,882)" d="m0 0 3 1-17 9h-3v2l-5 2-12 5-5 1v2l-7 4-6 1v2l-10 5-5 2h-4v2l-18 8-16 8-19 9-16 8-15 8-21 10-5 3-10 4-9 4h-2l-1 3-6 1v2l-13 5-37 18-26 13h-6l1-3 5-1v-3l-2-4 5-1 1-2-3-1 3-1 6 2v2h2l1 2 2-2 4-2-1-3h2l3 3 1-2 5-2-3-2 1-2 4-1 5-1v2l6-3 15-7 3-2 2 1-1-6v-4l3-1 1 8v1l9-5h2l1-2 3 1v-2h2v-2l9-3h3l1-2 4-1v-2l6-2 5-3-1-2h3v2l4-1 1-3 1-1h5l1-3 6-1 2-2h4v-2l4-2 2-2 8-3 7-1v-5l3 3 3-3h2l2-2h4v-2l5-1 4-4 3-1h3l2-2 10-4 5-1v-2l5-1 1-3 9-4 9-3h2l1-2 8-3 2-2 5-1 1-2 5-2h4l2-4 4-1 7-3h3l1-2 8-4z" fill="#979C9C"/>
<path transform="translate(465,362)" d="m0 0 3 1-3 3 5 4v2h2l1 6-4-3h-3l-1 2-17 8-21 9-25 10-2 1h-6l1-5 4-4 4-2 1-3-2-1 8-4 15-6 14-7 11-4z" fill="#4B89A2"/>
<path transform="translate(388,628)" d="m0 0 6 2 4 2v2l3 1 7 10 4 8 3 7 1 16-2 17-2 7-3 3-4 7-4 4h-2l-1 2-14 8-8 5-7 5-14-2-1-7-6-9-1-4-2-5v-3h-2v-2h-2l-4-9-5-10-2-5v-4h-2l-8-16-6-13-2-6v-4l3 1 9 16 3 6 3 9 22 44 8 15v2l7-2 17-7 14-8 9-11 4-11 1-3v-19l-6-16-6-11-8-8z" fill="#0E1E2B"/>
<path transform="translate(469,63)" d="m0 0 4 2-2 5h-2v2l-3 2v7l7 2 3 2 12-5 6-1v-2h3v-7l1-2h2v-2h3l4 2 2-4 2 2h-2v3l6-1 2-4v2l8-2 9 1 1 3-1 3-9 3-13 5-8 4-7 2-12 6-14 6-2 1v-2h-2l-4-8-1-4h-2l-3-6v-2h-2l-1-7 6-1 1 1 1-3 7-2z" fill="#EBEEED"/>
<path transform="translate(697,458)" d="m0 0h13l9 3h6l5 5 6 5 1 3 5 4 11 25 2 7 1 13-3 11-3 9h-2l-2 4-3 5-8 6-11 5-4 2-7 1h-16l-12-3-8-5v-2l-4-1-2-4h-2l-1-3-4-3v-3l-4-2-6-10-4-11-1-16 1-9h1l2 14 4 14 4 9 10 14 7 7 14 7 4 1h21l10-2 9-5 7-7 6-10 2-6v-18l-5-16-6-12-8-10-10-8-10-4-6-2-9-1z" fill="#0C1D2B"/>
<path transform="translate(314,63)" d="m0 0 5 1-3 3h-4v2l-12 5h-4v2l-9 4-10 3-13 7h-4v2l-11 3v2l-19 9-10 3-16 8-12 5h-4v2l-8 1v2l-8 3h-4v2l-20 10h-4v2l-4 2h-4v2h-4v-2l9-5 7-2 6-2v-2h2v-2l-2-1 11-5 20-9 15-6 12-5 6-4 10-4 26-11 14-5 10-5 7-3 11-5 12-4z" fill="#545B5C"/>
<path transform="translate(528,313)" d="m0 0 5 1 10 17 6 9v4h2l3 8 2 4h2v4h2l8 15 3 5v2h2l4 6 3 9 4 9 3 9v7l-7-1-17-5-11-4-15-4-38-13-2-2 1-6 3-6 5-13 13-33 8-19zm1 3-6 16-4 10-4 9-4 10-5 13-4 8-2 9 10 4 24 8 16 5 11 4 12 4h3v2l5 2h3v-8l-8-15-6-12-12-22-17-29-11-18z" fill="#2A5066"/>
<path transform="translate(256,130)" d="m0 0h5l1 5-7 10-10 5-10-1-7 6-4 4-14 7-6 1-9 3-2-2 3-2-4 1 2-6 5-2v-2l-2-1 11-5 16-7 10-2v-2z" fill="#8ABAC9"/>
<path transform="translate(756,399)" d="m0 0h9l7 3 6 8v8l-6 8-8 4h-9l-7-5-3-5v-11l3-5z" fill="#CDD4D6"/>
<path transform="translate(577,293)" d="m0 0 1 3-3 9v19l4 11 8 12 11 7 11 4 6 1h18l15-5 9-6 8-9 4-4 5 2v2l3 1-4 1h-6l-3 4h2l1 3-1 1-2 4-1-2v3l1 3h-4v-3l-4 1-1 3-6 3h-4l-1 2-6 1-2-1-1 2h-13v3l-9-3-9-2-7-2-1-2-5-2-9-7-3-2v-2l-2-1-3-6-2-7-2-4-3-9h2v-9l2-4h2v-5z" fill="#E8ECEB"/>
<path transform="translate(578,17)" d="m0 0 5 1 4 6 2 7 4 8 1 5-6 5-10 1-1 2-9 4-2-1-1 2-12 6-7 2-5 1-1-4 3-6h3l1-3 11-4h2l1-2 9-1 5-3h2l3-13-10-1-4-1-1-5 7-1 3-4z" fill="#EBEEED"/>
<path transform="translate(363,161)" d="m0 0m-1 1m-4 1h4v2l-4 3-6 1-1 2-10 3-9 4-5 2-6 3-19 9-24 11-12 4-16 8-15 6-3 2-7 2-11 6-7 1-1 2-5 2-11 5-5 2h-3v2l-13 5-26 13-16 6-10 4h-2v2l-5 2-8 4-8 3-12 5-5 3h-4v2l-7 1v-2l9-4 20-9 15-7 21-9 24-11 35-16 27-11 15-7 20-9 18-8 16-6 14-7 22-10 8-4 9-4 15-6z" fill="#ECEFEE"/>
<path transform="translate(621,296)" d="m0 0h10l5 4 5 8v10l-4 5-7 3h-12l-7-6-1-2v-12l3-5 5-4z" fill="#BDD0D6"/>
<path transform="translate(528,320)" d="m0 0 1 3-6 19-4 4-6 18-4 9-5 13v3l13 5v2l10 1v-5l5-5 5-1 6 3v5l6 1 10 5 5 8 8 1 7 4 4 1 1-2v8l-5-1-3-1v-2l-9-2-15-5-14-5-20-6-11-4-7-3 2-9 6-12 3-9 4-10 4-9 5-12z" fill="#60A3BA"/>
<path transform="translate(618,265)" d="m0 0h11l15 4 3 1v2l-9-2-2 1 2 1v3l2 1-1 3 9 1 2 3 2-2v2h3l5 8 5 12 2 4-1 7-2 6h-1l-1-13-8-16-8-7-11-5-15-2v-4l-4-1-13 2-8 4-7 5-6 9-5 12-1 13 2 11 4 9 7 4 5 6v4l5 2 17 5v1h-7l-13-5-10-7-9-14-3-9v-19l4-11 6-9 6-7 4-1v-2l12-7z" fill="#4B89A1"/>
<path transform="translate(594,554)" d="m0 0h2v2h-2v6l3 1 1 6-1 4-2 4v2l2 3h1l2-1v3l5 1 1-2 1 4 3 1-1 2-4 2v4l-4-1-2 5h2l-1 2h-4l-5 1-3-4-2-1-1-3-1 3-2-4v-32l5-6zm-6 38 1 3z" fill="#E6E9E8"/>
<path transform="translate(636,661)" d="m0 0 4 1 5 9 10 17 8 16 3 5v3l-5 2h-6l-7-10-8-14-11-21-1-5z" fill="#081521"/>
<path transform="translate(594,542)" d="m0 0h1v12l-9 4-3 4-3 31-3 1v2h-7l-1-4 1-12-3-9-8-7v-3l8-5 11-5 10-3h5z" fill="#12354B"/>
<path transform="translate(407,446)" d="m0 0 4 3-2 2h7v3l2-4 1 4-9 26-4 10-2 9h-2v5h-2v-8h-6-2l-3 1 3-10 5-17 7-20z" fill="#CFD1D0"/>
<path transform="translate(450)" d="m0 0h17l-1 2-10 4-17 8h-3v2l-4 2h-4v2l-5 2h-3v2h-4v2l-6 2-9 4-6 4-10 4-13 6h-4v2l-10 4-13 5-8 4-7 1 4-4 10-4 9-4 13-6 6-2 4-3 11-4 5-3-4-1 26-13 12-5h2v-2l17-8z" fill="#646A6A"/>
<path transform="translate(271,462)" d="m0 0 7 1 1 9-3-4v-2l-10 2-13 5-9 5-12 4-12 6-6 1-2 4h-2v3l4 1v3l9-3 6-1-4 3-31 13-7 1-4-5v-7l5-3 11-4 14-7 10-4 10-5 8-3 9-4 5-1v-2z" fill="#446371"/>
<path transform="translate(325,405)" d="m0 0 14 3 66 22 5 3-1 3-22-8-20-6-10-4-24-8-8-1 1 7 3 3 3 10 5 7 6 15 4 6v3h2l4 8 8 11 7 8v2h2v2h2l4 4v2l8 4 2-1-1 5-7-4-14-11-10-12-10-16-9-17-10-24-1-3v-12z" fill="#204154"/>
<path transform="translate(123,227)" d="m0 0 2 3 2 4v3l5-1-2 1v7l-5 3-1 8-3 1-1 2-4 1-1 2-5 1-4-2-2-2h-5l-2 4-9-3v-9l4 3-3-4 1-2v-2-2h2l4 5 1-4-2-4 4 2 1 2 5 1v-2l-4-2 1-2 1 1 1-3 4 1 2 4 13-4-1-6-1-4z" fill="#8CA3AD"/>
<path transform="translate(329,337)" d="m0 0 1 2-6 10-5 13-6 21-2 11v25l4 16 7 19 5 10 11 17 12 13 3 3v2l4 2 8 6 11 9 3 3-1 3v-2l-4-2-10-7v-2l-6-2-9-8-6-4-11-15-9-14v-2h-2l-1-6h-2l-3-8-4-10-3-13-1-9v-22l2-15 2-6 4-11 2-3 2-7 4-8 1-3h2l2-5z" fill="#0E1D2A"/>
<path transform="translate(490,407)" d="m0 0 10 2 43 14 22 7 19 5 4 3-1 7-2 1v-7l-6-2-14-3-13-4v-2l-11-2-10-2-7-3-4-1v-2l-9-2-14-5h-6l-5 15-7 14-3 5-5 5h-13l-19-3-5-2v-2h-10l-1 8-6 15-4 13-3 6-4 14-1 2h-2l3-14 6-15 6-18 3-7 3-9 17 4 18 5h8l6-4 4-5 4-8 8-22z" fill="#1B3E53"/>
<path transform="translate(552)" d="m0 0h25l-1 5-3 5-8 4-5-2-3-1-1 6-6-1-6 2-6 1-13-3-8 3-8 4-14 5-9 4-8 1 1-2 8-4 13-4 21-9 17-6z" fill="#C0D1D6"/>
<path transform="translate(506,542)" d="m0 0 7 1 5 3 4 8v14l-1 4 11 1 5-5 2-5 3-17 4-2v8l2 1v2h-2l1 4 3 5v2l8-1 5 4 4 8v18l-4 1v-2h-2v-3l-4 1-4-3 7-1 1-7-2-1-1-9-2-2-5 1-3 1-6-1-6 4-2 3h-2v2l-7-2v-2l-4-2-1 2-3-5 2-5-1-9-3-4v-2l-6-2v-2h-5l-1 2-3 2-2 4-5-2 2-4 5-4z" fill="#E4E8E7"/>
<path transform="translate(130,73)" d="m0 0 12 2 5-1 1 1 1 7 1 1 12 1 6 5 5 2v3l-16 1-2-7-11-1-5-3-6 1-5-1 2 6 2-2h22l2 2-1 3-2-3h-10l-3 2h-8l-1 5 14 1v2l5 1v1h-18l-5 3h-5l-2-2 1-13 6-15z" fill="#EBEEED"/>
<path transform="translate(331,723)" d="m0 0 3 3 1 7 5 1 3 5 5 2 2 3h10l7-2 4-2 5 2 1-2 7-1 4-1-3 3-34 15-15 7-5-1-3-6v-3l6-3 2-2v-7l-7-14v-2h2z" fill="#112737"/>
<path transform="translate(105,869)" d="m0 0h2l4 6v2l5-1v5l-2-1 1 4 2-1 1 8 1 4 2 1 3 3 1 5h2l3 4-1 5 2 3-1 3 3 1 4 5 1 4v4l8 17h3l4 1 3 2-2 4-3 1 1 1 3 4v8l2 1 1 4h2l3 5-1 1 2 1 1 7 4 5 2 1 1 8 6 10 3 4v6h-4l-2-8h-2l-4-10v-2h-2l-4-11-4-9v-2h-2l-7-16-12-26-8-17-8-16-4-9-8-17z" fill="#979C9C"/>
<path transform="translate(267,634)" d="m0 0h2v2h2l4 4 9 2 5 6 23 45 10 19 12 22 2 5v8l-1-3h-3l-7-16-6-11-8-14-6-10-4-9-7-16-7-14-1-3-4-4v-2l-11-1-5-5-1-3h2z" fill="#E5E8E7"/>
<path transform="translate(939,932)" d="m0 0h5l-3 2-5 2-7 6-8 4-8 5-4 3-7 3-9 5-5 7-11 3v6l-4 4-5 2-6 5-9 3-2 4h-5l-1 4-7 6-5 4-2 6-2 2-1 6h-11l1-6 5-8 8-1 5-10 8-7 11-5h2v-2l9-4h2v-2l4-4 3-5 9-5 5-1 2-4 4-3 9-4 16-9 3-3 8-4 5-4z" fill="#979C9C"/>
<path transform="translate(615,288)" d="m0 0 1 2 3-1 12-1 5 1 8 6 5 5 2 7v12l-5 10-7 5h-8l-13-3 1-3-4-2 1-2 2 1h13l8-5 1-2v-13l-4-6 1-2 3 1v-2l-9-4h-15l-7 3 2-5z" fill="#61A0B5"/>
<path transform="translate(458,379)" d="m0 0h3v2l-4 4 2 2h-2l-1 5-3 3-14 6-15 4-5 1h-2v2l-4 3-10-1-1-3 4-4 4-1v-2l14-6 20-8z" fill="#86B8C8"/>
<path transform="translate(325,409)" d="m0 0 1 3h4l1 4h3l-1 8 8 17 5 10 7 11 2 2 2-1 1 5 1 7h2l3 3-1-4 4-4 6-3-1 4h2l1 2h2l2 7 2 3-1 7-2 4 10 3-2 4-4 1-6-5-4-4v-2h-2v-2h-2l-8-10-10-14-1-5h-2l-8-16-4-9-5-8-2-10-3-1z" fill="#4A8CA5"/>
<path transform="translate(238,939)" d="m0 0 3 2v2l4 1 5-3 2 5 4 1 3-1 2 4 2 1-1 2-3-1v2l-4-1-1-3-2 3v-3l-4 4-3 1v2l-4 2h-5v-2h-1l-1 2h-2l1 8-1 5 3 2-1 4-2 3h-3l1-7-4-1v-3l-2-1-3-3-1-4-3-2v-3h-2l-2-3-4-2v-1h6l2 1 1-3 2 3-1 2 6-1 3-4 12 1 5 1v-2l-4-1h-3l-2-1-3 1-1-3 5-4z" fill="#9B9F9F"/>
<path transform="translate(352,622)" d="m0 0h19l10 3 11 6 9 9 8 15 4 12v14h-3l-2-12-8-20-4-6v-2l-4-2-9-6-1-2-10-3-12-2-10 2-4 1-10 2-3 2-7 3h-5l-1 2-4-1v-2l23-10z" fill="#E5E9E9"/>
<path transform="translate(645,460)" d="m0 0 2 3-8 9-3 8-4 7-2 8v16l3 8 3 3 3 13 2 7 5 6 3 6v2l4 2 15 13 4 2 1 4-5-1-11-7-8-7-8-10-9-17-4-11-2-9v-19l5-15 7-12z" fill="#183547"/>
<path transform="translate(482,57)" d="m0 0h3l4 6v2l-3 1h-9l-1 2h-2l-1 4 3-2 6-2 5-1h4v-2l6 2 1-3 4 5-1 3-1-4h-2l-1 9h-3v2l-10 4-9 3-5-3-4-2-1-7 4-2v-2l3-3v-5h2l2-3z" fill="#CFD0CE"/>
<path transform="translate(504,546)" d="m0 0h5v2h4v2h2l4 6 1 11-2 4 2 4-1 1-7-1-6-4-5-2-8-9-1-7 2-1 4 1 1-5z" fill="#CFD0CF"/>
<path transform="translate(326,388)" d="m0 0 7 1 27 8 22 7 8 3 4 1v2l9 2 13 4 31 10 11 3 2 2h-9l-29-7-13-6-32-10-20-7-18-5-14-4z" fill="#2B4E62"/>
<path transform="translate(289,384)" d="m0 0h1v35l4 20 6 18v2h2l5 12 8 11 4 5v2l7-1 2-1v8l2 5 4 2 4 4 8 7 2 4 4 2 6 5 10 5h4v3l3-1v4l-5-1-14-8-11-8-11-9-11-11-11-14-9-14-9-21-4-13-3-18v-26z" fill="#162733"/>
<path transform="translate(298,357)" d="m0 0 2 2v21l-2 7 2 5-1 4-3 4h-2v23l4 20 2 2v3l7 13v2h2l3 9h2l3 6 4 6 1 4-3 1-11-15-4-7-2-8h-2l-7-20-2-22v-28l2-8z" fill="#787D7E"/>
<path transform="translate(943,113)" d="m0 0 2 2 4 1 6 7 3 7 5 11 3 6 1 9 1 2-3 3 1 4-4 4-2-1-3-7v-3l-2-1-3-9h2l-1-5-3 1-3-7-4-5-1-6 3 1v2h2 1v-2l4 1v4l2 1 4 5-7-12h-2l-1-2-2 1-4-8z" fill="#DFE1E0"/>
<path transform="translate(819)" d="m0 0h5l5 12 13 23 5 8 3 5v3h2l7 14v2h2l15 30 7 12 8 16 8 14 30 56 2 6-3-2-8-15-8-14-6-11-7-14v-2l-2-1v-3h-2l-8-16-8-14-7-14-3-5-3-4-4-9-8-15-3-6-6-11-8-13v-2h-2l-6-11-9-17z" fill="#ECEFEE"/>
<path transform="translate(322,375)" d="m0 0 3 1 2 3-5 9h-3l-2 5-1 4v3h2l1 5-1 2-2 13-1 1 2 1 2 6-1 3 5 4 2 3v5l-2-1-2 2v-4l-3 3-3-5-4-13-1-6v-25l3-16h7z" fill="#CDCECC"/>
<path transform="translate(505,408)" d="m0 0h9l9 2 1 1 13 2 13 4 8 3 9 5 9 3 2-1v4l-6-1-1 2-9-2-56-18z" fill="#CCCFCD"/>
<path transform="translate(627,667)" d="m0 0 4 4 14 27 4 6v3l-5-2-2-8-4-1v-8h-2l-3-4v-2l-1 1v6l3 2-2 3 2 1v2 3l-5 2-3-6v-2l-6-1-2-4-4-4 1-6 2-3 4-5 5-2z" fill="#EAECEB"/>
<path transform="translate(317,442)" d="m0 0 3 1 5 5 1 5 5 1v2l-4 1 3 3h2v3l3 1-2 2 6 2v5l3 1-1 3 3 1v3l4 2 1 3 2 2-2 2 3 3v2h2l1-3 6 6h3l-1 2 3-1 3 2v3l2 1-1 1 3 1v3h-5l-8-6-7-5-7-8-10-11-13-21-5-13z" fill="#CCCECC"/>
<path transform="translate(437,995)" d="m0 0 3 1v2h-2l1 3-1 4h5v4h3v2h2l1 4-4 3 4 4-3 2h-16l-2-3-5-1-1-2 4 1-1-4 2-1-2-6-2-1-1-7h2l3 5 3-1 5-6h2z" fill="#989D9D"/>
<path transform="translate(279,473)" d="m0 0 2 1-6 5h-3l-2 4-6 1-4 1-1 4-6 1-5 6 3 3h-4l-1 2-5-1h-4v-3h-2l1 4h-3l2 6-6 1-2-2 2-2-1-4-6 3-5 4h-4l-5 3h-2l-1 2-5 2-3 3-2-2-4 1h-5v-3l13-4 35-15 18-8 20-9 6-3z" fill="#E6EAEA"/>
<path transform="translate(491,410)" d="m0 0 9 1 20 7v2l7 1 9 3 16 4v2l7 1 13 4 7 1v2l5 1v2l-9-1-11-3-16-4-11-3-11-4-13-3-12-5-10-3z" fill="#CBDBDF"/>
<path transform="translate(496,301)" d="m0 0h8l8 4 2 2-2 11-5 10-3 10-4 9-6 15-5 11-8 20-7 17-1-3 11-29 4-11h2l1-6 4-11 4-8 3-8 5-14 3-7v-5l-4-3-13 1-16 6-9 3v2l-14 5-3-1 4-4 5-2h4v-2l11-4 5-1v-2l10-4z" fill="#50636B"/>
<path transform="translate(441,268)" d="m0 0h19l13 3 13 5 12 6-3 3-2 7-5 1v-3l-10-4-8-2-4-4-2-6-9-3-14-2z" fill="#C8CCCC"/>
<path transform="translate(443,361)" d="m0 0 6 3 1 6-12 5-13 6-24 10-5 1v-6h-3v-3l5-3h4l2 2 1-3h6l2-1 4 1-1-3h2v3h4v-2h2l1-6 4 1v-2l6-2v2l3-2h-2l-1-3 5-3z" fill="#CFD1CF"/>
<path transform="translate(604,702)" d="m0 0 4 1 11 10 11 9 4 4v2l-10 3-5-1-6-5-7 1-1-2h2l-1-5h-2l-2-5 4-10h-2z" fill="#071421"/>
<path transform="translate(446,322)" d="m0 0 4 1-7 4-10 3-1 3-14 5-7 3h-3v2l-26 11-19 10h-4v2l-11 4-11 5-5 4h-2l-1 3-1-3 4-5 6-4 13-5 6-2v-2l15-5v-2l12-5 9-5 7-1v-2l9-3h3v-2l11-4h3v-2l16-6z" fill="#364D5B"/>
<path transform="translate(451,271)" d="m0 0 13 2 2 2 2 6 2 1v2l12 2 8 5v1l-9-1-15-4-14-2h-25l1-2 12-3 2-4 7-3z" fill="#959A9A"/>
<path transform="translate(336,296)" d="m0 0 2 1-8 8v3l-7 7-7 9-9 16-3 7h-2l-2 9-3 9-3 16-2 10v26l1 18-2-4-2-12v-38l4-17 6-16 12-24h2l2-5 14-16z" fill="#575F60"/>
<path transform="translate(117,155)" d="m0 0m-1 1m-2 1h2l-1 3h-3v2l-13 5-16 8-12 5-20 8-14 5-9 3-5 2-13 4-6 2h-4l1-5 11-1 1-3 3 1h4v-2l21-6 12-6 11-3 14-7 6-2 10-5 12-5z" fill="#646A6A"/>
<path transform="translate(991,806)" d="m0 0 2 2-5 3-5 1v2l-10 4h-3v2l-11 5h-3v2l-11 5-10 4-9 4h-2v2l-23 11-11 5h-3v2l-18 8-5 3-7 3-9 5-10 3v-2l12-6h4v-2l10-5h3l1-2 7-2v-2l15-6h2v-2l13-5h2l1-3 13-5 16-8 17-8 11-5 2-2 7-3 4-2h4l1-2 2 1 1-3h5z" fill="#8E9394"/>
<path transform="translate(531,315)" d="m0 0 3 1 8 13 7 11v4h2l3 8 2 4h2v4h2l8 15 3 5v2h2l4 6 3 9 4 9 3 9v6h-3l-1-9-8-15-6-12-12-22-17-29-9-15z" fill="#1E3848"/>
<path transform="translate(426,7)" d="m0 0 4 1-5 4 3 1-11 5-23 11-15 7-16 5-1-2 8-4h2v-3h8v-4l5-3h5l1-3 16-7 10-5z" fill="#989D9D"/>
<path transform="translate(507,598)" d="m0 0 7 1 13 5 15 7 15 6 3 3-1 6-6 7-1-2 1-4h2v-2l-6-4-14-7-12-5-16-7v4l-3 3-1 2h3v3l-6 2v-7l6-10z" fill="#E7EAE9"/>
<path transform="translate(156,132)" d="m0 0m-4 1h4v2h-2v2l-8 4-9 3-5 2v2l-10 3-12 6-8 3-26 12-4-1-1-3 19-8 9-4 11-5 16-7 10-4 12-6z" fill="#4F5758"/>
<path transform="translate(326,409)" d="m0 0h7l15 5 11 4 10 4 21 6 11 4v2l4 2-4 1-13-4-10-2-10-4-13-4-11-5-13-3-1-3h-4z" fill="#AFC9D2"/>
<path transform="translate(323,350)" d="m0 0h6v2l-4 2 1 9 3-1 1 3 1 6-3 1 5-1-2-6 2-5 4-3 3-1 2 4 2 1-3 3-3-2 1 3-2 7-7 5-2 2-6-4-2 4-6-1 2-10 5-15z" fill="#E4E7E6"/>
<path transform="translate(616,271)" d="m0 0 5 2-1 5-12 4-8 5-10 8-7-2v-5l6-7 7-5 10-4z" fill="#60A2B9"/>
<path transform="translate(530,319)" d="m0 0h2l10 17 13 22 13 24 7 12 5 10 1 6-4-1-13-26-13-23-4-6v-4l-4-2-6-11-2-8h-2l-3-6z" fill="#CEDBDE"/>
<path transform="translate(200,233)" d="m0 0m-3 1 3 1-3 3-12 5h-3v2l-13 5-26 13-16 6-10 4h-2v2l-5 2-8 4-8 3-12 5-5 3h-4v2l-7 1v-2l9-4 20-9 15-7 21-9 24-11 35-16z" fill="#E5E9E8"/>
<path transform="translate(661,647)" d="m0 0 4 2 6 9 7 14 9 16 4 8 5-1 16-8 10-4h4v2l-9 5v2h-6l-9 3-1 5-1-2-7 3-4-2-1-4-4-2-1-3-5-10-1-1-1-4-2-1-5-9-6-4v-3-2l-4-3v-2l2-1z" fill="#E5E9E9"/>
<path transform="translate(891,54)" d="m0 0 2 4 2 10 2 18 3 4-1 4-3-5-5 2v2l5 2v1h-6l-2-2-2-5-4-3 1-7 1-18 6 1z" fill="#ECEFEE"/>
<path transform="translate(613,980)" d="m0 0h1l1 8v1l6-2-1 3-28 13-29 14-6 4-7 3h-6l1-3 5-1v-3l-2-4 5-1 1-2-3-1 3-1 6 2v2h2l1 2 2-2 4-2-1-3h2l3 3 1-2 5-2-3-2 1-2 4-1 5-1v2l6-3 15-7 3-2 2 1-1-6v-4z" fill="#999D9D"/>
<path transform="translate(594,554)" d="m0 0h2v2h-2v6l3 1 1 6-1 4-2 4v2l2 3h-3l-1 4-6-3v-2h-2l-2-7v8h-1v-20l5-6z" fill="#E0E3E2"/>
<path transform="translate(668,648)" d="m0 0 6 1 5 5 4 5 4 8 2 5v8h-2v2h-2l-1 2-13-23-4-9z" fill="#0F2534"/>
<path transform="translate(697,458)" d="m0 0h13l9 3h6l5 5 6 5 1 3 5 4 11 25 2 7 1 13-3 11-3 9-2-3 3-10v-18l-5-16-6-12-8-10-10-8-10-4-6-2-9-1z" fill="#132D3E"/>
<path transform="translate(571,533)" d="m0 0h2v2l4-1 5 5-2 2-3-1v-3l-4 1-2-1v3l3 1v2h4l-2 5-12 5-15 3v-11l5-1v-1l7-2 5-1 1-2 2 1-1-4h3z" fill="#E3E6E5"/>
<path transform="translate(586,685)" d="m0 0h4l7 8 7 6-1 3h-3l-5-1-3-3v-2h-6l-2-1 1 6-2 3h-2l-1 18-2-4-2-22v-7z" fill="#0B1723"/>
<path transform="translate(756,399)" d="m0 0h9l7 3 6 8v8l-6 8-8 4h-9l-7-5-3-5v-11l3-5zm-1 4-5 5-1 2v7l3 6 6 5 6-1 8-5 2-3v-9l-4-5-5-2z" fill="#1E2E39"/>
<path transform="translate(616,574)" d="m0 0 5 1 5 8-1 2h-2l-1 13-4 14-3 5-5-1v-2h-2v-6l5-4 1-2h2l-1-4-2-1 2-9v-13z" fill="#214E68"/>
<path transform="translate(498,609)" d="m0 0h2v15l5 10 8 7 5 2h18l12-6 3-1 2-4 6-7 1 4-11 12-11 5-5 2h-14l-11-4-8-9-3-5-1-4v-10z" fill="#0A1A27"/>
<path transform="translate(491,552)" d="m0 0 2 4 3 7 6 6 7 3 12 6 23 10 10 4 12 5-1 3-8-1-14-7-8-3-11-5-3-1v-2l-6-1-11-5v-2h-3v-2l-5-2-5-9z" fill="#0C1B27"/>
<path transform="translate(459,119)" d="m0 0m-3 1h3v2l-5 3-10 4-10 5-3 2-7 2-7 3-7 2v2l-6 2-4 4h-4l-4 2-6 1-11 5-10 5-3-1 5-4 20-9 25-11 11-5 13-5 15-7z" fill="#EBEEED"/>
<path transform="translate(435,696)" d="m0 0 3 2-1 3-1 4 5 1-1 3h-2v2l-3 1-2-1 1 4-1 5-3-1v2l-3 1-1 3h-2v-2h-4v6l-9 1v-3l9-10 7-10 6-10z" fill="#E4E8E7"/>
<path transform="translate(502,525)" d="m0 0h18l9 4 8 7 3 5 1 5v10l-1 5-2-3v-9l-1-7-4-2-2-4-7-5-12-2-12 2-12 4-4 5h-2l-2 4h-3l3-6 8-7 11-5z" fill="#0B1D2C"/>
<path transform="translate(411,340)" d="m0 0 5 1-3 3-10 5-7 3h-6l-2 4-4 3-10 3-8 5-9 3h-4l-1 3-4 1v2l-4 2h-7l1-3 8-2 2-4 7-3h4v-2l10-4 15-8 22-9h2v-2z" fill="#94B5C1"/>
<path transform="translate(606,582)" d="m0 0h4v2h5v3 8l-4 6-7 4h-12l-11-3v-14h1l2 8 4-1-2 1 1 2 2-1 2 5 5-1h2l1-1 1-6 5 2-1-4 2-2h3v-2l-3-3z" fill="#E2E5E4"/>
<path transform="translate(271,462)" d="m0 0 7 1 1 9-3-4v-2l-10 2-13 5-9 5-12 4-12 6-8 3-15 7h-2l-1 3-11 2 1-3 15-6 14-7 10-4 10-5 8-3 9-4 5-1v-2z" fill="#0D1F2D"/>
<path transform="translate(329,337)" d="m0 0 1 2-6 10-5 13-6 21-2 11v25l3 12v3h-2l4 16-2-1-5-17-2-14v-22l2-15 2-6 4-11 2-3 2-7 4-8 1-3h2l2-5z" fill="#313D45"/>
<path transform="translate(542)" d="m0 0h10l-5 4-14 7-17 6-18 8-11 3-8 4-17 6-2-1 8-5 3-2 21-6 6-3 4-4 12-4 1-1h6l1-2 1-1h9l5-4 4-2z" fill="#EBEEED"/>
<path transform="translate(408,728)" d="m0 0m-2 1h2l-1 5-7 3-5 2-10 5-7 4-10 4-8 3-10 4-18 9-4-2-3-5-1-5 4-1 4 7 7-1 16-8 30-13 16-8z" fill="#DCE0E0"/>
<path transform="translate(471,740)" d="m0 0 5 5 10 17 14 27 6-1 5-1-3 6-6 2-6-1-8-16-5-12-2-4v-3h-2l-4-8-3-3z" fill="#E5E9E8"/>
<path transform="translate(388,628)" d="m0 0 6 2 4 2v2l3 1 7 10 4 8 3 7 1 16-2 17-2 7-3 3-4 7-4 4h-2l-1 2v-3h2v-2l3-3v-3l6-9 3-10v-19l-6-16-6-11-8-8z" fill="#132837"/>
<path transform="translate(360,973)" d="m0 0 6 2v2l2 1-1 4 4 1v2l2 1v11h-3l-1-1h-2l-1 2h-1v2h-2v-2l-4 1-2-4v-2-2l-4-2-3-6 4-2 1 3 5 2 3-5h2v-3h-2l-1 2-3-4z" fill="#999E9E"/>
<path transform="translate(497,490)" d="m0 0 3 1-19 9-36 16-20 8h-14l-12-6-1-1 1-7 3-8h2l-1 6-1 5 4 4 11 4 9-1 20-8 9-4 13-5 18-8z" fill="#3A5C6E"/>
<path transform="translate(943,222)" d="m0 0h2l5 6 3 5 2 1v2l4 2 2 3 2 11h2l4 7 3 5 1 7 4 4v9l-2-1-8-16-8-14-7-14-9-16z" fill="#CECFCD"/>
<path transform="translate(291,490)" d="m0 0 2 2-1 3 2 1-5 6h-2l-1 3-4 3-8 1 1 4h-2l-1 2v-2l-7 1-9 4h-4l-2 4-12 5-4 2-1-2h2l-1-3 1-2 26-11 13-6 10-4 5-4z" fill="#E6EAEA"/>
<path transform="translate(424,438)" d="m0 0 17 4 18 5h8l5-1-3 3h-18l-12-2-5-2v-2h-10l-1 8-6 15-4 13-3 6-4 14-1 2h-2l3-14 6-15 6-18 3-7z" fill="#2D5064"/>
<path transform="translate(325,405)" d="m0 0 14 3 66 22 5 3-1 3-22-8-20-6-10-4-9-3-17-6-6-1z" fill="#1A3749"/>
<path transform="translate(479,616)" d="m0 0 1 2v13l2 6 5 4 2 7 4 2 4 5 8 4 5 2 2 4 2 1-9-1-13-7-8-8-6-11-1-5v-17z" fill="#0F2331"/>
<path transform="translate(473,547)" d="m0 0h1l1 20 5 10 5 6 10 7-2 4-4 2-1-3-7-5-9-12-3-11-1-6 1-7 3-2z" fill="#E4E7E6"/>
<path transform="translate(392,31)" d="m0 0 2 1-10 5-9 4-4 3-9 3-10 5-12 4-10 5-5 1-1 1h-5l4-4 17-8 17-6 5-3h4v-3l13-4 7-3z" fill="#585F5F"/>
<path transform="translate(631,527)" d="m0 0h2l5 13 5 4 6 10v2l4 2 15 13 4 2 1 4-5-1-11-7-8-7-8-10-9-17-2-7z" fill="#143346"/>
<path transform="translate(592,539)" d="m0 0 2 1v9l-11 1-12 5-10 5-9 3h-4l2-4 16-8 11-5z" fill="#091824"/>
<path transform="translate(300,520)" d="m0 0 1 2-1 2-5 1-1 4-16 6-12 5-1 3-4 2-1-1-2 2-5 1-4 1-7 1v2l-15 5-4-1 5-3 29-12 23-10 12-5z" fill="#E2E8E8"/>
<path transform="translate(295,510)" d="m0 0h5l1 2v6l-6-3h-4l-3 3-7 2-12 5-4 2h-5v2l-4 1-1 2-4 2h-3v2l-10 2-9 4-4 1-1 2-10 3h-2v-2l9-4 18-7 10-5 24-10z" fill="#173244"/>
<path transform="translate(471,346)" d="m0 0 5 1 3 5-2 6-9 3-1-3h-4l-2 4-6 2-3-2 1-3 2-1 1-3 2-1-2-2 11-4z" fill="#D5D7D6"/>
<path transform="translate(596,274)" d="m0 0 4 1-11 7-6 8-6 14-1 13 2 11 4 9 7 4 5 6v4l5 2 17 5v1h-7l-13-5-10-7-9-14-3-9v-19l4-11 6-9 6-7 4-1v-2z" fill="#466370"/>
<path transform="translate(185,207)" d="m0 0 5 3 2 6v5h-2l-1 3-5 2v-2l-8-1v2h-2v5l-5-1v-10l2-2h10l3-6h2z" fill="#979C9C"/>
<path transform="translate(282,487)" d="m0 0h5l3 3v7l-4 3-1-5-2-3-10 2-4 3-16 6-10 4-22 10-11 4-3-1 11-5 57-25z" fill="#112433"/>
<path transform="translate(293,435)" d="m0 0h3l2 8 2 2v3l7 13v2h2l3 9h2l3 6 4 6 1 4-3 1-11-15-4-7-2-8h-2l-7-20z" fill="#717677"/>
<path transform="translate(458,379)" d="m0 0h3v2l-4 4 2 2h-2l-1 5-3 3-8 1-5-1-4 2-5-1 5-5-2-1 23-10z" fill="#8CAAB8"/>
<path transform="translate(468,266)" d="m0 0 9 1 13 5 6 3v2l5 2 9 4 8 3 5 4 1 4-6-2-13-6-19-9-15-6-5-1v-1h6l17 6-13-6-8-2z" fill="#3A4F5A"/>
<path transform="translate(499,304)" d="m0 0h7l5 4v4l-3-1v-2h-13l-11 4-14 6-16 7-9 2 4-3 12-5 3-3h4v-2l9-4 16-6z" fill="#A7C3CC"/>
<path transform="translate(268,466)" d="m0 0h8l3 6-2 4-23 10-15 7-3-1 6-4 12-4v-2l6-2 5-2v-3-2l-8-2z" fill="#436271"/>
<path transform="translate(369,999)" d="m0 0 9 2h4l7 1h3 3l-2 6-2 2 3 3-2 4-1-2-7-1-1-4h-6l2-2h-3l-3-1-5 1-1-2z" fill="#989D9D"/>
<path transform="translate(342,478)" d="m0 0h2v3l4 2 1 3 2 2-2 2 3 3v2h2l1-3 6 6h3l-1 2 3-1 3 2v3l2 1-1 1 3 1v3h-5l-8-6-7-5-7-8-10-11 2-1h3z" fill="#C1C3C2"/>
<path transform="translate(400,412)" d="m0 0 11 2 11 4 25 8 11 3 2 2h-9l-29-7-13-6-10-3z" fill="#285068"/>
<path transform="translate(835,882)" d="m0 0 3 1-17 9h-3v2l-5 2-12 5-5 1v2l-7 4-6 1v2l-10 5-5 2h-4v2l-6 3h-2l2-6 9-3 9-4h3l1-2 8-3 2-2 5-1 1-2 5-2h4l2-4 4-1 7-3h3l1-2 8-4z" fill="#8F9494"/>
<path transform="translate(320,611)" d="m0 0 2 1-1 1 2 2-10 4-5 3h-4v2l-13 5-17 7v3l-3-1-1-5 12-5 27-12z" fill="#0A1825"/>
<path transform="translate(568,456)" d="m0 0m-3 1h3v3l-10 4-14 7-11 5-20 9-10 5h-6l3-2 6-1 1-3 13-6h3v-2l12-5 16-8z" fill="#4E8AA2"/>
<path transform="translate(345,496)" d="m0 0 6 4 9 7 4 2v2l4 2 6 4 5 5-1 4h-2l-3-5-6-5-7-2-5 2-5-6-1-6h-3l-2-7z" fill="#6D7374"/>
<path transform="translate(627,667)" d="m0 0 4 4 14 27 4 6v3l-5-2-2-8-4-1v-8h-2l-3-4v-2l-5 1-5-2-1-5 2-5z" fill="#E0E3E2"/>
<path transform="translate(404,508)" d="m0 0 4 2 1 1 8 1 3 3v2l14-1v-2l6-1 1 2-15 6-9 1-13-5-2-2 1-5z" fill="#4A8CA6"/>
<path transform="translate(417,56)" d="m0 0 3 1-4 1v2l-16 8-16 7-8 3h-4v2l-9 4-27 11-2-1 2-3 14-5 19-8 7-3 13-5 6-3h3v-2l6-2 4-3z" fill="#C4D4D9"/>
<path transform="translate(0,642)" d="m0 0 1 2h2l1 4 1 3 2 1v4l2 1 3 7 2 6 4 9 9 19 6 10-1 4-4-4-7-16-2-2-2-8h-2l-3-9-7-14-5-12z" fill="#949999"/>
<path transform="translate(819,430)" d="m0 0 7 2 4 2v-3l10 2 1-2 4 2-1 4-1-1-1 3 1 4h2v4l2 1-4 1h-2l-2 1-1-3-3-1v-3l-5-2-2-2 2-2-6-3-4 1-2-4z" fill="#E9EBEA"/>
<path transform="translate(743,415)" d="m0 0 2 2 4 8 6 4h9l8-4 6-8 4 1v8l-8 2-1 4-5 1h-12l-7-2-3-2-3-9z" fill="#E6E9E8"/>
<path transform="translate(528,313)" d="m0 0 5 1-1 2-2 1-7 17-3 8-4 9-4 10-5 13-4 8-2 9-4 1 2-6 6-16 8-20 10-24z" fill="#37586A"/>
<path transform="translate(876)" d="m0 0h10l2 5 6 8 1 7-3 3-7-4v-3l-3-3-1-6h-2l-1-6z" fill="#E9ECEB"/>
<path transform="translate(358,604)" d="m0 0 24 1 9 3 5 2 4 3v2h-7l-5-2-20-4-13-2-2-2z" fill="#204D68"/>
<path transform="translate(717,674)" d="m0 0 5 3 2 2 1 3-10 5-9 4-5-2 4-8 7-3 2-3z" fill="#0F2434"/>
<path transform="translate(528,320)" d="m0 0 1 3-6 19-4 4-6 18-4 9-5 13v3l13 5v2l5 1 3 2-7-1-11-4-7-3 2-9 6-12 3-9 4-10 4-9 5-12z" fill="#589BB3"/>
<path transform="translate(345,461)" d="m0 0 4 4 1 2 4 2 7 10 7 8v2h2v2h2l4 4v2l8 4 2-1-1 5-7-4-14-11-10-12-9-14z" fill="#244659"/>
<path transform="translate(997,325)" d="m0 0 3 1 5 9 1 3 2 1-1 2 3-1v3h2l4 13 4 5h4v15l-2-3-8-14-2-3v-3l-2-1-13-26z" fill="#E9ECEB"/>
<path transform="translate(1e3 217)" d="m0 0 3 3 1 4h2l5 10v2h2v3l6 1h4v21l-4-5-8-16-2-5-2-1-3-9-3-1-2-5z" fill="#EAEDEC"/>
<path transform="translate(623,584)" d="m0 0 4 2 1 4v11l-9 17h-4l2-6 4-14 1-13z" fill="#14364B"/>
<path transform="translate(357,597)" d="m0 0h19l15 3 14 7 1 3-15-6-7-2-10-2h-18l-14 3-12 5-10 4-2-1 10-5h3l1-2 13-5z" fill="#8B9090"/>
<path transform="translate(454,353)" d="m0 0h5l-1 2h-2l-1 4-2 1v2l3 1 6-3 1-3 5 1v4l-12 5-5 2-3-1h2v-2l-2-1-4-3-2 2v-2l-2-1v-2l13-5z" fill="#E4E8E8"/>
<path transform="translate(238,939)" d="m0 0 3 2v2l4 1 5-3 2 5 4 1 3-1 2 4 2 1-1 2-3-1v2l-4-1-1-3-2 3v-3l-4 4h-5l2-5-4-1h-3l-2-1-3 1-1-3 5-4z" fill="#9A9F9F"/>
<path transform="translate(327,487)" d="m0 0 1 4 1 6 1 3 4 2 4 4 8 7 2 4 4 2 6 5 10 5h4v3l3-1v4l-5-1-14-8-10-7-2-4-5-6-5-3-7-7-2-5-4-4 4-2z" fill="#5B6567"/>
<path transform="translate(362,426)" d="m0 0 15 3 5 3 16 4v3l-10 5-3 3-3-5 1-5-8-3-3-3-5-1-5-2z" fill="#4C8DA7"/>
<path transform="translate(638,279)" d="m0 0 10 1 2 3 2-2v2h3l5 8 5 12 2 4-1 7-2 6h-1l-1-13-8-16-8-7-8-4z" fill="#4A8CA6"/>
<path transform="translate(205,520)" d="m0 0h8l-3 3-4 3v4h2v4l-6 2h-7l-2-5 1-6z" fill="#265069"/>
<path transform="translate(358,420)" d="m0 0 11 2 21 6 11 4v2l4 2-4 1-13-4-10-2-1-3-5-1-14-5z" fill="#D0DEE1"/>
<path transform="translate(336,296)" d="m0 0 2 1-8 8v3l-7 7-7 9-9 16-3 7h-2l-1-4 7-13 3-6h2l2-5 14-16z" fill="#536064"/>
<path transform="translate(61,172)" d="m0 0 4 1-5 5-19 9-7 2-10 2v-2l6-2v-2l10-3 10-5z" fill="#505859"/>
<path transform="translate(314,63)" d="m0 0 5 1-3 3h-4v2l-12 5h-4v2l-9 4-10 3-1-4 9-4 11-5 12-4z" fill="#565E5E"/>
<path transform="translate(599,314)" d="m0 0 4 3 4 7 6 8 11 1 1 1 9 1-2 2-4 1h-10l-8-3-8-8-3-7z" fill="#496470"/>
<path transform="translate(476,32)" d="m0 0h2l-1 3-10 5h-3l-1 3-22 6-15 6h-2v-2l18-7 11-5 5-1v-2z" fill="#C1D2D7"/>
<path transform="translate(758,409)" d="m0 0h6l5 5v3l-4 4-1 2-5 2-3-5v-4l-3-1v-4z" fill="#274151"/>
<path transform="translate(436,263)" d="m0 0h21l11 1v3l8 1 14 7-2 1-16-6-17-2-12-2h-5v-2z" fill="#2B404D"/>
<path transform="translate(530,422)" d="m0 0 13 1 22 7 19 5 4 3-1 7-2 1v-7l-6-2-14-3-13-4v-2l-11-2-10-2z" fill="#345F74"/>
<path transform="translate(491,378)" d="m0 0 1 2h4v2h-4v4h-2v2l2 1-2 2-2 1-1 7h-2v3h-5v2l3 1v2l-3-1-1 2h-2v-8l2-3h2l1-5 4-7h4v-2h-3l1-3 2-1z" fill="#CECFCD"/>
<path transform="translate(372,355)" d="m0 0h5l-4 4-10 5h-4v2l-11 4-11 5-5 4h-2l-1 3-1-3 4-5 6-4 13-5 6-2v-2l9-3z" fill="#234355"/>
<path transform="translate(758,400)" d="m0 0h10l5 3 5 7v8l-6 8-8 4h-5l-1-2 10-4 5-5v-9l-5-5-10-4z" fill="#1A2631"/>
<path transform="translate(216,505)" d="m0 0 2 3 6-1v3h-2l-1 5-14 5 1-4-8-2 4-3z" fill="#CCCECD"/>
<path transform="translate(289,384)" d="m0 0h1v35l4 20 7 20 1 5-3-3-5-12-4-13-3-18v-26z" fill="#1C303D"/>
<path transform="translate(767,406)" d="m0 0 6 2 1 2v9l-4 5-8 4-6-1v-2l5-2h3l2-5 3-1-4-7z" fill="#D9DDDD"/>
<path transform="translate(424,261)" d="m0 0h28l5 1v1l-19 1v2l5-1 12 2v1l-35-1v-1l6-1-10-1v-2z" fill="#677072"/>
<path transform="translate(484,732)" d="m0 0 4 1 13 9-3 1-3-2-16-1-2 4 3 3v3h-2l-6-9 1-4 10-4z" fill="#0B1824"/>
<path transform="translate(555,746)" d="m0 0 2 3 2 5h2v2h2l1-2 4 2-2 4-4 1v2l-2 1-3 5h-5l-5 2-2-5-1-6 4 2 2 3 5-2 3-1-1-6-2-6z" fill="#E4E7E6"/>
<path transform="translate(697,458)" d="m0 0h13l9 3h6l5 5 6 5 1 3 5 4 1 5-2-1v-3h-4l-5-5-10-8-10-4-6-2-9-1z" fill="#153245"/>
<path transform="translate(400,466)" d="m0 0h2l-2 7h-2v2l3 1-3 2-2 5 2 6h-2v2l7 3-1 10h-2v-8h-6-2l-3 1 3-10 5-17z" fill="#E6EAE9"/>
<path transform="translate(943,113)" d="m0 0 2 2 4 1 6 7 3 7 5 11 3 6v5l-2-3-12-22-3-1-1-2-2 1-4-8z" fill="#EBEEED"/>
<path transform="translate(405,998)" d="m0 0 4 2h-3l1 5 7 6-2 3-2-1v4l-3 1-1-4-4-2-3-1-1 4-1-4v-2h2l-1-3h4l-1-6z" fill="#9A9E9E"/>
<path transform="translate(280,491)" d="m0 0 4 1 4 5h-2v4l-9 4h-3l-2-11z" fill="#244F6A"/>
<path transform="translate(27,186)" d="m0 0 3 1-6 2v2l10-2v2l-10 3h-4v2l-6 1-1-1-1 2-12 2 1-4 16-6z" fill="#585F5F"/>
<path transform="translate(531,315)" d="m0 0 3 1 8 13 7 11v4h2l3 9h-3l-14-24-6-10z" fill="#1C3647"/>
<path transform="translate(579,596)" d="m0 0h1l1 5 11 3h12l7-4 3-2-1 4-6 5-2 1h-11l-14-2-6-4z" fill="#071522"/>
<path transform="translate(563,992)" d="m0 0 4 2-3 7-2-1 1-3-4 1v3l-4 3h-2v-2l-5-1v4l-3 1-2-3 7-9 11-1z" fill="#989D9D"/>
<path transform="translate(497,392)" d="m0 0h7l12 4 16 6 1 2 6 2-4 1-36-12z" fill="#285067"/>
<path transform="translate(722,683)" d="m0 0h4v2l-9 5v2h-6l-9 3-1 5-1-2-7 3-4-2 5-3 16-8z" fill="#E2E5E5"/>
<path transform="translate(970,158)" d="m0 0 1 3v2l4 4-1 4h4l7 11-2 7-3-3v-2l-3-1v-2l-3-1-2-5h3l-4-5v-3l-2 2v-4l-2-2 1-3z" fill="#DCDDDC"/>
<path transform="translate(329,337)" d="m0 0 1 2-6 10-5 13-6 21-2 11-1-3h-2l1-10 2-6 4-11 2-3 2-7 4-8 1-3h2l2-5z" fill="#3F4E55"/>
<path transform="translate(271,462)" d="m0 0 7 1 1 9-3-4v-2l-10 2-13 5-9 5-4-1 3-1-1-2 10-4h3v-2z" fill="#162937"/>
<path transform="translate(424,438)" d="m0 0 17 4 18 5h8l5-1-3 3h-18l-12-2-5-2v-2l-10-1z" fill="#2C556A"/>
<path transform="translate(427,444)" d="m0 0h7l10 3 12 3 14 1-2 2-4 1h-9l-17-4-7-2-3-1z" fill="#E0E6E7"/>
<path transform="translate(300,520)" d="m0 0 1 2-1 2-5 1-1 4-16 6-12 5-1 3-4 2 1-6 1-2 25-10 11-6z" fill="#E1E6E6"/>
<path transform="translate(412,378)" d="m0 0 2 1-1 5-7 2-7 6-3-1v-5h-3v-3l5-3h4l2 2 1-3h6z" fill="#CFD1D0"/>
<path transform="translate(532,709)" d="m0 0 4 2 3 9-5-2-9-2-4 4-1 11-2-3v-12z" fill="#0B1925"/>
<path transform="translate(991,806)" d="m0 0 2 2-5 3-5 1v2l-10 4h-3v2l-11 5h-3v2l-11 5h-2l2-4 17-8 3-1 2-2 7-3 4-2h4l1-2 2 1 1-3h5z" fill="#909595"/>
<path transform="translate(564,636)" d="m0 0 4 1-4 6-7 10h-4l-1-7 4-7 8-2z" fill="#23506B"/>
<path transform="translate(374,278)" d="m0 0h5v4l-7 2v2l-3 1v7l-3 2-2-2v-6l-3-1 2-4 7-4z" fill="#C1C3C2"/>
<path transform="translate(228,499)" d="m0 0 2 1v5l-2 1h3l5 1-4 3-9 4h-2l1-4h2l-1-2-5 1-2-1 2-4 8-4z" fill="#C5C7C6"/>
<path transform="translate(353,398)" d="m0 0 7 1 12 3 15 6 10 2 3 2v2l-10-2-36-12z" fill="#173345"/>
<path transform="translate(434,1010)" d="m0 0h7l-1 4 3 1 1 4v3l-5 2h-8v-3l-2-3h2l-1-3 5 1 4 2v-3h-2v-2h-3z" fill="#C9CAC8"/>
<path transform="translate(325,755)" d="m0 0 4 1 3 6 7-1 12-6 2 1-5 4-11 6-6 2-4-4-3-7z" fill="#E2E6E5"/>
<path transform="translate(327,660)" d="m0 0 2 4h2l6 12v5h2l8 16 10 19-2 2-8-15-20-40z" fill="#788489"/>
<path transform="translate(644,690)" d="m0 0 4 1 4 3 2 10 1 6-2 2-11-18v-3z" fill="#112635"/>
<path transform="translate(678,578)" d="m0 0 14 2 12-2 15 3-3 2h-26l-11-3z" fill="#19374B"/>
<path transform="translate(507,540)" d="m0 0h11l2 1v3h2l2 6 1 11-2 7h-1l-1-14-4-8-10-4z" fill="#162D3D"/>
<path transform="translate(317,357)" d="m0 0 1 4-5 10-2 9-2 6-1 10v26l-2-3-1-28 3-15 3-6 2-8h2z" fill="#757B7C"/>
<path transform="translate(581,575)" d="m0 0h1v13l-1 13-2-4-4 5 1 2-5-2-6-2 1-3-2-1 5-3 1 3h7v-2l2-1z" fill="#152A38"/>
<path transform="translate(323,350)" d="m0 0h6v2l-4 2v11l-1 2-3 1 3 3-7 1-1-4 5-15z" fill="#D8DAD8"/>
<path transform="translate(618,265)" d="m0 0h11l15 4 3 1v2l-11-3h-17l-5 1h-6l-8 4-2-1 8-5z" fill="#848A8C"/>
<path transform="translate(439,440)" d="m0 0h8l11 3 2-1v3l8-1 3-1v3l-4 2h-8l-23-6z" fill="#C5C8C7"/>
<path transform="translate(590,705)" d="m0 0 5 2 7 6-1 3-7 4h-2l-2-7z" fill="#DFE3E3"/>
<path transform="translate(567,382)" d="m0 0 4 5 9 17 1 6-4-1-12-24 1-2z" fill="#B2CAD1"/>
<path transform="translate(491,410)" d="m0 0 9 1 20 7v1h-9l-1-2-4 1-2 1-5-2-8-2z" fill="#85B0BF"/>
<path transform="translate(405,339)" d="m0 0 2 1-6 4v2l-19 8-5 2-5-1 4-3 12-5 5-3 7-1v-2z" fill="#4A5E68"/>
<path transform="translate(410,264)" d="m0 0h24v1l-14 1v2l-13 2h-11l4-3z" fill="#1C2E3B"/>
<path transform="translate(210,546)" d="m0 0h2v2l4-1v2h-2v2h2v2l5-1 3 2-8 4h-5l-4-5v-5z" fill="#2D5166"/>
<path transform="translate(495,353)" d="m0 0 1 3-8 20-14 34-1-3 11-29 4-11h2l1-6z" fill="#2D5166"/>
<path transform="translate(206,110)" d="m0 0 4 1-5 4-3 3-10 4-4-1 2-5z" fill="#505858"/>
<path transform="translate(186,502)" d="m0 0h5v2h-2v2l4 2 7-1 4-2 3 1-10 5-6 2-5-1-3-4v-5z" fill="#2F5063"/>
<path transform="translate(536,472)" d="m0 0 2 1-16 8-19 9h-6l3-2 6-1 1-3 13-6h3v-2l9-2z" fill="#4D8297"/>
<path transform="translate(317,442)" d="m0 0 3 1 5 5 1 5 5 1v2l-4 1 3 4-3 4-4-6-5-13z" fill="#C3C5C4"/>
<path transform="translate(301,345)" d="m0 0 1 4-5 16-2 5-1 6h-2l-1 7h-1l1-11 5-17z" fill="#33424B"/>
<path transform="translate(835,882)" d="m0 0 3 1-17 9h-3v2l-5 2-12 5-7 2 2-3 5-2h4l2-4 4-1 7-3h3l1-2 8-4z" fill="#939898"/>
<path transform="translate(349,713)" d="m0 0 2 1 6 12 3 4 9-1 9-3-5 5-4 3-14-2-1-7-6-9z" fill="#0E2434"/>
<path transform="translate(297,663)" d="m0 0h2l10 19 5 11 5 9v2l-3-1-19-38z" fill="#132735"/>
<path transform="translate(372,76)" d="m0 0h2v2h-2v2l-9 4-27 11-2-1 2-3 14-5 19-8z" fill="#D0DDDF"/>
<path transform="translate(506,416)" d="m0 0 5 1 3 1 16 4-2 2h-13l-9-4-1-3z" fill="#E2E8E8"/>
<path transform="translate(573,388)" d="m0 0 3 1 5 9 2 7 4 10v6h-3l-1-9-8-15-2-5z" fill="#152B39"/>
<path transform="translate(756,920)" d="m0 0m-3 1h3v2l-19 10-15 7-3-1 2-3 5-1 4-4 3-1h3l2-2 10-4 5-1z" fill="#979C9C"/>
<path transform="translate(482,378)" d="m0 0 1 2-2 8-2 5-4 4-2 9-2 6-2-4 1-8h2l1-4 5-12z" fill="#7CB2C4"/>
<path transform="translate(906,79)" d="m0 0h2l2 10v13h-5l-1-5z" fill="#ECEFEE"/>
<path transform="translate(200,233)" d="m0 0m-3 1 3 1-3 3-12 5h-3v2l-13 5h-3l4-4z" fill="#E8EBE9"/>
<path transform="translate(340,51)" d="m0 0h6l-2 4-10 4-6 2-4 2h-5l4-4z" fill="#565E5E"/>
<path transform="translate(161,997)" d="m0 0 4 2 2 5h2l3 6v6l-7-3v-6l-3-3z" fill="#455358"/>
<path transform="translate(377,989)" d="m0 0 5 2h7l-1 6 1 4-1-2-4-1-1 1-7-1 2-1v-3h-5v-2h4z" fill="#999E9E"/>
<path transform="translate(341,326)" d="m0 0 6 1 2 2-8 5v2l-6 3v-2h-3l-1 2 1-4 5-6z" fill="#E7EAE8"/>
<path transform="translate(160,914)" d="m0 0h5l-1 2 6 2-1 2-2-1 1 4-1 3h-2v4l-3-1-2-4-2 4v-2l-2-1v-2h2l1-3v2h4l-2-4-2-1z" fill="#9A9F9F"/>
<path transform="translate(342,478)" d="m0 0h2v3l4 2 1 3 2 2-2 2 4 5-1 2-11-11-5-7 4 1z" fill="#BEC0BF"/>
<path transform="translate(482,57)" d="m0 0h3l4 6v2l-3 1h-7l-1-2h-6v-2h2l2-3z" fill="#D4D7D5"/>
<path transform="translate(930,86)" d="m0 0 2 3 1 1h2l4 7v5 3l-4-1-1-4-2-1v-3l-2-1v-4h-2z" fill="#E7EAE9"/>
<path transform="translate(899,34)" d="m0 0h2l2 6 3 1v5l3 1v2l2 1v2l4 4-1 3-3 1-4-4v-3l-4-7z" fill="#EAEDEC"/>
<path transform="translate(250,501)" d="m0 0 2 1v2l-9 3-22 10-11 4-3-1 11-5 16-7z" fill="#152C3C"/>
<path transform="translate(645,460)" d="m0 0 2 3-8 9-3 8-4 7-2 8-2-4 3-10 7-12z" fill="#193343"/>
<path transform="translate(339,356)" d="m0 0 3 2v2l2 1-3 3-3-2 1 3-1 5-4 1-3-5 2-6 4-3z" fill="#ECEFEE"/>
<path transform="translate(628,297)" d="m0 0 6 1 6 8v9h-3l-3-10h-2l-1-3-3-3z" fill="#E4E9E9"/>
<path transform="translate(404,508)" d="m0 0 4 2 1 1 8 1 2 3-2 3h-7l-4-2v-2l-4-2z" fill="#62A5BC"/>
<path transform="translate(370,400)" d="m0 0 7 1 21 7 6 3 8 2 14 5-4 1-14-5-10-2-4-2v-2l-8-1-16-6z" fill="#4989A2"/>
<path transform="translate(313,322)" d="m0 0 2 4-8 14-3 7h-2l-1-4 7-13 3-6h2z" fill="#566064"/>
<path transform="translate(360,282)" d="m0 0 3 1-6 4h-2v2l-10 5-3 1-1 3-8 7-4 1 6-7 5-6h3v-2l8-4h3v-2z" fill="#1E303C"/>
<path transform="translate(559,625)" d="m0 0 1 4-11 12-11 5h-6l1-2 12-5 4-3h2l2-4z" fill="#091926"/>
<path transform="translate(640,319)" d="m0 0 2 2-1 6-5 1-1 2h-5l-1-2h-7l-2-2 11-1 8-5z" fill="#8AB9C9"/>
<path transform="translate(493,23)" d="m0 0m-1 1m-4 1h4v2l-6 2-16 6-10 3 4-4 7-4 7-2z" fill="#ECEFEE"/>
<path transform="translate(392,528)" d="m0 0 15 5-1 2-12-1-3 6-3-1 2-9z" fill="#8B9193"/>
<path transform="translate(360,479)" d="m0 0 8 8v2h2v2h2l4 4v2l8 4 2-1-1 5-7-4-13-10-2-6-3-3z" fill="#2C5064"/>
<path transform="translate(463,357)" d="m0 0 5 1v4l-12 5-5 2-3-1h2v-2l-2-1v-2l5-1 3 1 6-3z" fill="#DFE5E5"/>
<path transform="translate(873,863)" d="m0 0m-2 1h2v2l-9 5-7 3-9 5-10 3v-2l12-6h4v-2l10-5h3l1-2z" fill="#939898"/>
<path transform="translate(581,588)" d="m0 0h1l2 8 4-1-2 1 1 2 2-1 2 5 13 2v1h-12l-11-3z" fill="#B7BBBB"/>
<path transform="translate(737,477)" d="m0 0 4 2 1 3 3 3 6 13 1 11-2-1-5-15-5-9-3-4z" fill="#132735"/>
<path transform="translate(596,40)" d="m0 0 2 1-1 5-3 1v2l-15 4-9 4h-4v-2l8-1 1-2 7-3 4-1 2 1 1-2 4-3 1-3z" fill="#C9CFCF"/>
<path transform="translate(594,678)" d="m0 0 4 1v2h3l1-2 4-1-1 3h-2l-2 4h-3l-1 2h-2l-4 1-2-3v-3h2l1-2z" fill="#E6E9E8"/>
<path transform="translate(606,590)" d="m0 0 1 2v1l2-1v2l3-1-1 3-7 1v5l3-1v3h-13l1-3h3l1-1 1-6 5 2-1-4z" fill="#CFD1CF"/>
<path transform="translate(616,574)" d="m0 0 3 1-2 1v4l3 2v13l-6 2 1-15v-7z" fill="#556C76"/>
<path transform="translate(96,279)" d="m0 0 3 1-3 3-9 4-10 5h-4v2l-7 1v-2l9-4 20-9z" fill="#E6E9E8"/>
<path transform="translate(979,8)" d="m0 0 4 1v11l-1 2-6-1 1-11z" fill="#ECEFEE"/>
<path transform="translate(402,502)" d="m0 0h2l-1 6-1 5 4 4 6 3-1 2-7-1-6-4 1-7z" fill="#214458"/>
<path transform="translate(484,421)" d="m0 0 1 2h2l-2 5-6 12-3 5-5 5h-13v-1l11-1 2-2 6-8 4-8z" fill="#547988"/>
<path transform="translate(507,320)" d="m0 0 2 3-2 5-3 10-4 9-3 7h-3l3-9 3-7 4-10z" fill="#4B7182"/>
<path transform="translate(475,566)" d="m0 0 4 5 1 5 5 2 8 7v2l3 1v2l-5-2-9-7-6-9z" fill="#14232E"/>
<path transform="translate(348,518)" d="m0 0 7 3 3 3 10 5h4v3l3-1v4l-5-1-14-8-8-6z" fill="#404F56"/>
<path transform="translate(781,509)" d="m0 0 4 2v2l-4 4 3 3v2h-2l1 5h-2l-1-2-2 2-1-2v-11z" fill="#E5E7E6"/>
<path transform="translate(353,367)" d="m0 0h8l-4 3h-4l-1 3-4 1v2l-4 2h-7l1-3 8-2 2-4z" fill="#A3C3CE"/>
<path transform="translate(115,231)" d="m0 0 6 5-1-5 3 1 1 6-10 4h-3l-2-9 3 1 4 4z" fill="#D2D6D6"/>
<path transform="translate(647,973)" d="m0 0m-3 1 2 1v2l-11 5h-2l-1 3-6 1v2l-5 1 2-4 3-1 1-2 3 1v-2h2v-2l9-3h3z" fill="#929797"/>
<path transform="translate(625,292)" d="m0 0h9l7 4-1 4-3-1 4 7h-2l-5-7-9-4z" fill="#436676"/>
<path transform="translate(596,274)" d="m0 0 4 1-11 7-6 8-6 14-1 6-2-2 2-10 6-11 8-9 4-1v-2z" fill="#435F6E"/>
<path transform="translate(579,744)" d="m0 0 2 4v2l10-4h3l1-2 1 5-6 1v2l-5 2-7-1z" fill="#E5E9E9"/>
<path transform="translate(323,493)" d="m0 0 3 1 3 6 7 7 5 3 6 8-5-2-13-12-6-7h2z" fill="#283943"/>
<path transform="translate(383,426)" d="m0 0h10l12 4 5 3-1 3-22-8z" fill="#1F4459"/>
<path transform="translate(462 1e3)" d="m0 0h2v2h3v2l6-1 2 4h-3l1 8-5-3-1 2-1-7-2-1v-2h-2v-2l-3-1z" fill="#979C9C"/>
<path transform="translate(651,710)" d="m0 0h2l2 3h6l6-1-1 3-6 3h-2l-1 2-5-1 1-3-4-1z" fill="#E5E9E8"/>
<path transform="translate(235,497)" d="m0 0h2v3l5-1v2l4-2v2l4 1-12 5h-3l-2-3v-3l2-1z" fill="#C9CCCA"/>
<path transform="translate(530,329)" d="m0 0 3 1v2h2l2 3 1 6h-5l-6-5v-5z" fill="#62A5BC"/>
<path transform="translate(591,592)" d="m0 0 7 3v3l-1 3-3 2-4-1-2-3-2-1v-2z" fill="#E0E2E1"/>
<path transform="translate(583,394)" d="m0 0h2l3 6 2 2-2 3 2 1 3 4-1 4-3-1-2-4-3-3-1-9z" fill="#E6E9E8"/>
<path transform="translate(291,628)" d="m0 0 2 1-9 5-2 6-7 1-2-2 1-4 12-5z" fill="#132837"/>
<path transform="translate(389,423)" d="m0 0 8 1h4v3l12 3-2 1 2 1-2 7-2 1v-7l-12-5-8-3z" fill="#DFE3E3"/>
<path transform="translate(574,16)" d="m0 0h8l-2 2-2-1-1 2-2 1-3 3h-7l-1 2-7 2-1 2-4 1v-3l10-5 8-2v-2z" fill="#C4D2D5"/>
<path transform="translate(209,958)" d="m0 0 6 1v2l2 2h-2v2h2v3h-6l-5-3 1-5h2z" fill="#979C9C"/>
<path transform="translate(614,727)" d="m0 0 4 1 2 2 9-1 3 1v2l-8 3h-7l-1-4h-2z" fill="#E7EAE9"/>
<path transform="translate(633,645)" d="m0 0h1v5l-5 1-4-1-6 5-2-2v-4l3-3h10z" fill="#EAEDEC"/>
<path transform="translate(505,560)" d="m0 0 6 2v2l4 1v6h-8l-3-7z" fill="#EBEEED"/>
<path transform="translate(418,450)" d="m0 0 1 4-6 18h-2l-1 2v-6l3-5 1-5-2-2v-3l-3-1 7-1v3z" fill="#E3E8E8"/>
<path transform="translate(513,414)" d="m0 0 11 3 16 5 1 2-14-2-7-2v-2l-9-2z" fill="#23495D"/>
<path transform="translate(354,396)" d="m0 0 9 2 19 6 8 3 4 2-4 1-10-4-15-5-11-2-2 1-2-2z" fill="#295269"/>
<path transform="translate(227,525)" d="m0 0h5l-4 4-11 4-4 1-2 2h-5l4-4 16-6z" fill="#DEE4E5"/>
<path transform="translate(566,373)" d="m0 0 3 3 2 6h2l4 6 1 5-2-1v-3h-2l-2 2-7-13z" fill="#354854"/>
<path transform="translate(62,295)" d="m0 0 3 1-2 3-9 3-7 3-6 2-4 2h-3v-2l22-9z" fill="#E9ECEB"/>
<path transform="translate(923,80)" d="m0 0 4 2 2 4-4 1 1 6h2l-1 6-4-3-2-9 1-2h3z" fill="#EBEEED"/>
<path transform="translate(363,417)" d="m0 0 9 2 18 6 1 2-11-1-9-3v-2l-7-2z" fill="#143346"/>
<path transform="translate(400,412)" d="m0 0 11 2 11 4 9 3-3 1-10-2-10-4-2 1-7-2z" fill="#2E5469"/>
<path transform="translate(458,379)" d="m0 0h3v2l-4 4-2 3-11 1-2-2 8-4z" fill="#82A2AF"/>
<path transform="translate(574,308)" d="m0 0h1l2 17 5 12 6 9-4-2-7-11-3-9z" fill="#2C5065"/>
<path transform="translate(610,303)" d="m0 0 1 3-1 2h-2l2 13-2 1v-2l-3-1-2-5 1-5 1-2h2v-2z" fill="#62A5BC"/>
<path transform="translate(82,245)" d="m0 0h3l2 3 2-1 3 4v2h-4l-3 3h-4l-3-7v-3h2l3 5h2z" fill="#D2D8D7"/>
<path transform="translate(623,672)" d="m0 0h6l1 2v8h-3l-4-1-1-5z" fill="#D0D1CF"/>
<path transform="translate(239,535)" d="m0 0 3 1-7 4-10 3-1 2-10 3h-2v-2l9-4z" fill="#172D3B"/>
<path transform="translate(423,440)" d="m0 0 1 2h6v1h-6l-1 8-6 15-1 5-2-3 1-5 4-10z" fill="#395B6E"/>
<path transform="translate(961,156)" d="m0 0 3 1 1 1h3l-3 3 1 4-4 4-2-1-3-7 1-3 3 1z" fill="#ECEFEE"/>
<path transform="translate(411,693)" d="m0 0h2l-1 7-3 3-4 7-4 4h-2l-1 2v-3h2v-2l3-3v-3l6-9z" fill="#122533"/>
<path transform="translate(747,540)" d="m0 0h2l-1 5-5 7-8 6h-2l1-4 8-7z" fill="#122431"/>
<path transform="translate(652,483)" d="m0 0 1 4-1 17-2-1v12h-1l-1-5v-17l3-8z" fill="#1E3848"/>
<path transform="translate(446,322)" d="m0 0 4 1-7 4-10 3-1 3-5 1-1-4 16-6z" fill="#3A525E"/>
<path transform="translate(496,754)" d="m0 0 15 8 6 4-1 2-6-4h-6-3l-5-8z" fill="#DFE3E3"/>
<path transform="translate(531,315)" d="m0 0 3 1 8 13v4h-3l-6-11-2-3z" fill="#162C3B"/>
<path transform="translate(104,237)" d="m0 0 4 1 2 6-8 4-4-2-3-6 4 2 1 2 5 1v-2l-4-2 1-2 1 1z" fill="#D7D9D8"/>
<path transform="translate(271,462)" d="m0 0 7 1 1 9-3-4v-2l-10 2h-4l1-3z" fill="#0E2130"/>
<path transform="translate(371,359)" d="m0 0 4 1-5 5-8 3-7-1 4-1v-2l10-4z" fill="#ABC0C7"/>
<path transform="translate(471,346)" d="m0 0 5 1 3 5-2 6-7-1 4-2 1-5h-6-3l3-3z" fill="#E4E8E8"/>
<path transform="translate(408,728)" d="m0 0m-2 1h2l-1 5-7 3-5 2-5 3-3-1 5-4z" fill="#E4E8E7"/>
<path transform="translate(638,279)" d="m0 0 10 1 12 16 2 4-1 3-8-13-7-6-8-4z" fill="#426170"/>
<path transform="translate(542)" d="m0 0h10l-5 4-14 7-2-1 6-5 4-2z" fill="#ECEFEE"/>
<path transform="translate(563,738)" d="m0 0 3 3 2-2v3l2 1-3 3-1 4-3 1v-2h-2v-5h-2v-2l3-1z" fill="#E8EBEA"/>
<path transform="translate(431,424)" d="m0 0 21 3 8 3v1h-9l-19-5z" fill="#204358"/>
<path transform="translate(510,284)" d="m0 0 6 1 7 5 1 4-6-2-9-4z" fill="#435762"/>
<path transform="translate(304,1010)" d="m0 0 3 1 4 10 1 3h-8l1-6-1-2z" fill="#979C9C"/>
<path transform="translate(245,958)" d="m0 0 1 3 3 1 1 2-2 1v2h-2l-1 2-5-2-1-8 4 2z" fill="#979C9C"/>
<path transform="translate(541,721)" d="m0 0 3 1v2l2 1v2l4-1-1 3 3 1v4l-3 1-3-1-3-6-2-3z" fill="#DEE1E1"/>
<path transform="translate(690,660)" d="m0 0 5 5 1 4h2v3h2l1 4-2 1-2-2-4-2-4-8z" fill="#CED0CE"/>
<path transform="translate(384,599)" d="m0 0 9 2 12 6 1 3-15-6-7-2-4-2z" fill="#848A8B"/>
<path transform="translate(293,435)" d="m0 0h3l2 8 2 2v3l1 11-2-2-6-18z" fill="#5F6769"/>
<path transform="translate(317,432)" d="m0 0 4 2 4 4v5l-2-1-2 2v-4l-3 3-2-7z" fill="#D2D4D2"/>
<path transform="translate(645,353)" d="m0 0 4 1-9 4-7 2h-16v-1l15-2z" fill="#5B8799"/>
<path transform="translate(942,126)" d="m0 0 3 1v2h2l3 6 2 2 3 7-2 1v-2l-3 1-3-7-4-5z" fill="#ECEFEE"/>
<path transform="translate(638,688)" d="m0 0h2l7 13 2 3v3l-5-2-2-8-4-1z" fill="#E1E4E3"/>
<path transform="translate(760,409)" d="m0 0 6 1 3 4v3l-5 5h-2v-12z" fill="#142837"/>
<path transform="translate(636,297)" d="m0 0 7 2 3 6-1 6h-3l-2-5-4-7z" fill="#4A8CA6"/>
<path transform="translate(495,278)" d="m0 0 6 1 9 4 1 4-9-2-7-4z" fill="#0D1D2B"/>
<path transform="translate(374,274)" d="m0 0 2 1-1 1 3 2-15 5-4 1-5 1 5-4 7-3z" fill="#44535B"/>
<path transform="translate(256,527)" d="m0 0 4 2-4 1-1 2-4 2h-3v2h-6l-2-2z" fill="#203D50"/>
<path transform="translate(372,355)" d="m0 0h5l-4 4-10 5-4-1-4 1 2-1v-2l9-3z" fill="#304753"/>
<path transform="translate(468,315)" d="m0 0h2l1 3-15 7-8 3-3-1 16-7 3-3h4z" fill="#C0CED2"/>
<path transform="translate(283,641)" d="m0 0 5 2 2 4h2l4 9v5l-3-3-7-13z" fill="#152633"/>
<path transform="translate(408,609)" d="m0 0 6 4 10 9 5 8-1 2-7-9-10-9-5-4z" fill="#888E8E"/>
<path transform="translate(201,522)" d="m0 0 4 1-7 6-1 7h-2l-2-5 1-6z" fill="#1A3242"/>
<path transform="translate(326,409)" d="m0 0h7l12 4-4 1-5-1 1 2h-6l-1-3h-4z" fill="#93BBC9"/>
<path transform="translate(458,354)" d="m0 0 5 2-2 6-6 2-3-2 1-3 2-1 1-3z" fill="#CFD0CE"/>
<path transform="translate(463,266)" d="m0 0 10 1 12 5 5 3-2 1-16-6-8-1z" fill="#0B1F2E"/>
<path transform="translate(228,99)" d="m0 0 4 1-3 3-6 3h-4v2h-5l1-3 8-4z" fill="#4F5657"/>
<path transform="translate(243,973)" d="m0 0h2v2h4v6l-7 1-4-7h3v2h2z" fill="#979C9C"/>
<path transform="translate(991,806)" d="m0 0 2 2-5 3-5 1v2l-13 5-2-1 8-5 6-1 1-2 2 1 1-3h5z" fill="#949999"/>
<path transform="translate(537,720)" d="m0 0h3l9 18-1 3-6-10-2-2 1-2h-2l-3-6z" fill="#111F2B"/>
<path transform="translate(341,449)" d="m0 0 4 5 2 3v3h2l3 6v2l-3-1-8-10z" fill="#315567"/>
<path transform="translate(391,384)" d="m0 0h2v2h3l2 7-7 4z" fill="#95AAB2"/>
<path transform="translate(529,316)" d="m0 0 2 1v6l2 6h2l2 6-2-1v-2h-2l-1-2-6 1z" fill="#8BBAC9"/>
<path transform="translate(504,303)" d="m0 0 7 1 3 3-2 11-4 5 1-8 1-7-6-4z" fill="#4A6E7E"/>
<path transform="translate(414,670)" d="m0 0 2 4-1 14-1 5-4 1 2-8 1-15z" fill="#192C39"/>
<path transform="translate(458,507)" d="m0 0 3 1-16 8-6 2-3-2 16-7z" fill="#335B70"/>
<path transform="translate(271,492)" d="m0 0 4 1-6 4-16 6-2-1 8-5z" fill="#102230"/>
<path transform="translate(424,438)" d="m0 0 17 4 6 2-1 2-12-2-10-2z" fill="#163143"/>
<path transform="translate(506,368)" d="m0 0h3l-2 6-4 8-2 9-4 1 2-6 6-16z" fill="#446371"/>
<path transform="translate(615,288)" d="m0 0 1 2 3-1 12-1 5 1 2 2-22 1-7 3 2-5z" fill="#AEC2CA"/>
<path transform="translate(617,575)" d="m0 0h4l5 8-1 2h-5l-1-3-3-2z" fill="#435157"/>
<path transform="translate(571,533)" d="m0 0h2v2l4-1 5 5-2 2-3-1v-3l-4 1-2-1v3l-4 2-1-4 3 1-1-4h3z" fill="#E8EAE9"/>
<path transform="translate(568,456)" d="m0 0m-3 1h3v3l-10 4-13 6-3-1 17-8 3-3z" fill="#507585"/>
<path transform="translate(331,433)" d="m0 0h2l1 4h2l1 8h2l3 8v2h-2l-9-19z" fill="#1D3C4F"/>
<path transform="translate(840,439)" d="m0 0h2l1 4h2v4l2 1-4 1h-2l-2 1-1-3-1-4z" fill="#DEE1DF"/>
<path transform="translate(662,301)" d="m0 0h2l3 6-1 7-2 6h-1l-1-13-1-4z" fill="#4A7D93"/>
<path transform="translate(631,291)" d="m0 0h8l10 9-1 2-4-2-4-4-9-4z" fill="#80AAB9"/>
<path transform="translate(670,285)" d="m0 0h3v2h2l1 7-3 4-5-11h2z" fill="#E6E9E8"/>
<path transform="translate(105,94)" d="m0 0h5v9l-4 1-2-2v-7z" fill="#ECEFEE"/>
<path transform="translate(540,36)" d="m0 0h10l-3 5-3 1-7-2-1-2z" fill="#CECFCD"/>
<path transform="translate(681,681)" d="m0 0 3 1 7 14-1 2-5-5-2-3-3-5z" fill="#E4E8E8"/>
<path transform="translate(564,413)" d="m0 0 9 2 3 1v2l5 1 6 2-4 1-20-6z" fill="#3F6071"/>
<path transform="translate(349,413)" d="m0 0 6 1 9 2v2l7 3v2l-7-2-7-3-9-3z" fill="#275169"/>
<path transform="translate(377,406)" d="m0 0 7 1 7 2 6 1 3 2v2l-10-2-13-4z" fill="#203A4B"/>
<path transform="translate(449,353)" d="m0 0m-3 1h3v2l-20 9h-3v-2l6-1v-2z" fill="#4C8399"/>
<path transform="translate(500,305)" d="m0 0h7l4 3v4l-3-1v-2h-12v-2z" fill="#DCE4E5"/>
<path transform="translate(430,274)" d="m0 0 4 1-5 5-5 2h-12l1-2h12l2-5z" fill="#979C9C"/>
<path transform="translate(520,544)" d="m0 0h2l2 6 1 11-2 7h-1l-1-20z" fill="#183344"/>
<path transform="translate(631,527)" d="m0 0h2l5 13 3 7h-3l-8-17z" fill="#152835"/>
<path transform="translate(584,444)" d="m0 0 2 4-8 7-6 3h-2l2-4h3v-2l5-2v-2z" fill="#538FA7"/>
<path transform="translate(749,417)" d="m0 0 2 3 5 6 3 3-4 1-7-5-1-7z" fill="#243D4C"/>
<path transform="translate(491,411)" d="m0 0 8 1 3 1 2 5-11-2-2-1z" fill="#C1D0D4"/>
<path transform="translate(344,371)" d="m0 0h2v2l-4 2h-4v2l2 2-2 2-7 1 2-5 5-4z" fill="#78ABBD"/>
<path transform="translate(528,313)" d="m0 0 5 1-1 2-2 1-7 17-2-1 3-9z" fill="#3B525F"/>
<path transform="translate(484,310)" d="m0 0m-7 1h7v2l-11 5-3-1v-3z" fill="#B4C9D0"/>
<path transform="translate(532,738)" d="m0 0h2l2 6h-1v16l-3 1z" fill="#E0E2E1"/>
<path transform="translate(290,623)" d="m0 0 3 1-8 4-13 5h-2l1-3 6-3z" fill="#868C8C"/>
<path transform="translate(407,446)" d="m0 0 4 3-5 5-3 9-3 1 3-12z" fill="#E0E6E6"/>
<path transform="translate(773,419)" d="m0 0 2 1-1 4-7 5-8 1-1-2 10-4z" fill="#182C3A"/>
<path transform="translate(308,391)" d="m0 0h2l-1 25-2-2v-18z" fill="#061522"/>
<path transform="translate(517,739)" d="m0 0h2v12h-5l-1-7z" fill="#E6E9E8"/>
<path transform="translate(344,695)" d="m0 0h2l11 21-2 2-8-15-3-6z" fill="#909595"/>
<path transform="translate(479,616)" d="m0 0 1 2v23l-2-2-1-5v-17z" fill="#172835"/>
<path transform="translate(357,597)" d="m0 0h19l8 2v1l-32-1v-1z" fill="#949999"/>
<path transform="translate(448,448)" d="m0 0 10 1h16v2l-5 3-4 1h-9v-1l12-2-18-2z" fill="#7CB1C3"/>
<path transform="translate(382,432)" d="m0 0 10 1 9 3h3l-3-3 5 1 1 4-4 3-5-4-16-4z" fill="#8DB9C8"/>
<path transform="translate(665,287)" d="m0 0 4 4 4 11 1 10-2 3-2-14-5-12z" fill="#24475C"/>
<path transform="translate(772,508)" d="m0 0 2 4v22l-4 7-1-2 2-6 1-19z" fill="#112D40"/>
<path transform="translate(689,470)" d="m0 0h5l-1 3h4v2h-2v2l-8 1-4-4v-2h2v2l3-2z" fill="#ECEFEE"/>
<path transform="translate(496,301)" d="m0 0h8l3 2-18 4 2-3-3-1z" fill="#527788"/>
<path transform="translate(1019,218)" d="m0 0h5v10l-5-2-1-7z" fill="#ECEFEE"/>
<path transform="translate(751,500)" d="m0 0 2 3 2 7v8h-1l-1 7h-1l-1-19z" fill="#1A3445"/>
<path transform="translate(697,458)" d="m0 0h13l11 4 3 3-2 1-10-4-6-2-9-1z" fill="#182E3D"/>
<path transform="translate(758,400)" d="m0 0h10l5 3 1 2-2 3-4-3-10-4z" fill="#122432"/>
<path transform="translate(528,320)" d="m0 0 1 3-6 19-4 3 1-4 6-17z" fill="#5D9FB6"/>
<path transform="translate(302,107)" d="m0 0 3 1-4 1v2l-17 8-4-1 5-3 14-6z" fill="#CCDADD"/>
<path transform="translate(448,43)" d="m0 0 3 1-12 6-13 5h-2v-2l18-7z" fill="#ECEFEE"/>
<path transform="translate(450)" d="m0 0h5l-4 3-20 9-3-1 17-8z" fill="#979C9C"/>
<path transform="translate(204,114)" d="m0 0m-2 1h2v2l-12 5-4-1 2-5 8 1z" fill="#515959"/>
<path transform="translate(392,31)" d="m0 0 2 1-14 7-6-1 2-2 10-4z" fill="#596161"/>
<path transform="translate(561,411)" d="m0 0 8 1 10 4 5-1v5l-5-1-3-1v-2l-9-2-6-2z" fill="#4A8CA6"/>
<path transform="translate(579,381)" d="m0 0 3 1v6l-2 2 3 1-1 3-4-1-2-6z" fill="#E3E6E4"/>
<path transform="translate(384,349)" d="m0 0h4l-1 3-8 4-7-1 4-3z" fill="#526269"/>
<path transform="translate(464,314)" d="m0 0h3l-1 3-12 5-3-1 4-4z" fill="#3E515B"/>
<path transform="translate(166,248)" d="m0 0 2 1-3 3-12 6-4-1 4-3z" fill="#E3E6E4"/>
<path transform="translate(360,40)" d="m0 0 1 2-11 5h-2v2l-7 1-1-2 16-7z" fill="#CACBC9"/>
<path transform="translate(346,969)" d="m0 0 4 1 3 1 1 6-3-1-1 2-2-1v-3l-2-1-2-3z" fill="#989D9D"/>
<path transform="translate(257,946)" d="m0 0h2l2 4 2 1-1 2-3-1v2l-4-1-1-3-2 3-1-4 1-2z" fill="#989D9D"/>
<path transform="translate(388,628)" d="m0 0 6 2 4 2v2l3 1 1 7-5-5-9-8z" fill="#192834"/>
<path transform="translate(762,403)" d="m0 0 6 1 3 3-5 1-2 2-9-1-2-1 2-2h9v-2z" fill="#758389"/>
<path transform="translate(307,387)" d="m0 0h1v35l-2-3-1-28z" fill="#61686A"/>
<path transform="translate(412,381)" d="m0 0h9l-3 3-15 6-3-1 6-4h4l1-2 2 1z" fill="#E4E8E8"/>
<path transform="translate(338,370)" d="m0 0 6 1-2 2-7 3-3 3h-2l-1 3-1-3 4-5z" fill="#334B59"/>
<path transform="translate(445,365)" d="m0 0 5 1v4l-4 2-7-1 5-5z" fill="#D7DBDA"/>
<path transform="translate(518,343)" d="m0 0 1 3-6 18-3 5-1-3 3-6 3-9z" fill="#5696AD"/>
<path transform="translate(668,335)" d="m0 0 6 2v2l3 1-4 1h-6l-4 2 4-7z" fill="#EAEDEC"/>
<path transform="translate(981,178)" d="m0 0 4 4-2 7-3-3v-2l-3-1v-4z" fill="#E6E9E8"/>
<path transform="translate(352,85)" d="m0 0 2 1-3 3-15 6-2-1 2-3 14-5z" fill="#CDDADE"/>
<path transform="translate(735,930)" d="m0 0m-3 0 2 4-12 6-3-1 2-3 5-1 4-4z" fill="#989D9D"/>
<path transform="translate(793,902)" d="m0 0 3 2-7 4-6 1v2l-6 2 2-5 9-3 2-2z" fill="#8E9393"/>
<path transform="translate(231,478)" d="m0 0 2 1-16 8-9 2v-2l13-5 7-3z" fill="#8A9090"/>
<path transform="translate(475,394)" d="m0 0v3l-2 9-2 6-2-4 1-8h2l1-4z" fill="#86B9C9"/>
<path transform="translate(301,345)" d="m0 0 1 4-5 16-2-4 1-6z" fill="#415057"/>
<path transform="translate(411,340)" d="m0 0 5 1-3 3-11 5v-2l-3-1 9-3v-2z" fill="#91B5C2"/>
<path transform="translate(630,310)" d="m0 0 7 1 2 4v3l-4 1-5-6z" fill="#D2D3D1"/>
<path transform="translate(488,299)" d="m0 0h4v2l2-1h8v1l-12 2-5 1-5-2 4-1z" fill="#C9CDCC"/>
<path transform="translate(506,292)" d="m0 0 6 1 2-1 2 2 3 4-15-2v-2h2z" fill="#CECFCD"/>
<path transform="translate(514,1008)" d="m0 0 5 1-1 6v3l-6-3v-5z" fill="#989D9D"/>
<path transform="translate(632,692)" d="m0 0 1 2 2 1v2 3l-5 2-2-3 1-5z" fill="#EBEEED"/>
<path transform="translate(545,544)" d="m0 0 1 4 1 5 1 2h-2l-1 3-4-4 1-8z" fill="#EAEDEC"/>
<path transform="translate(561,371)" d="m0 0 3 3 3 6-1 4-4-4-3-6 1-2z" fill="#C2D4DA"/>
<path transform="translate(495,353)" d="m0 0 1 3-8 20-2-2 2-7h2l1-6z" fill="#3D6377"/>
<path transform="translate(181,241)" d="m0 0 2 1-1 3-13 5h-3l4-4z" fill="#E6E9E8"/>
<path transform="translate(6,194)" d="m0 0h6v4l-12 2 1-4z" fill="#5B6262"/>
<path transform="translate(970,158)" d="m0 0 1 3v2l4 4-1 4h2v2l-4-2-1-4-2 2v-4l-2-2 1-3z" fill="#E9ECEB"/>
<path transform="translate(149,138)" d="m0 0m-1 1m-2 1h2v2h-4v2l-4 2h-4v2h-4v-2l9-5z" fill="#525A5A"/>
<path transform="translate(158,921)" d="m0 0 1 2 5-1 3 2v2h-2v4l-3-1-2-4-2 4v-2l-2-1v-2h2z" fill="#979C9C"/>
<path transform="translate(943,829)" d="m0 0m-1 1 1 2-11 6-10 3 4-4z" fill="#959A9A"/>
<path transform="translate(493,593)" d="m0 0 2 1-6 7-4 7-3 1 1-5 9-10z" fill="#0B1B28"/>
<path transform="translate(756,570)" d="m0 0 1 3 4 2-1 4h-3l-1-5v2l-4-1v-2zm3 0h3l-2 4z" fill="#D6D7D6"/>
<path transform="translate(558,553)" d="m0 0 4 1-12 6h-3l-2-2 1-3 3-1v2z" fill="#C1C3C1"/>
<path transform="translate(667,458)" d="m0 0 3 4-3 4h-3l-1 3-1-1v-6h2v-2z" fill="#476572"/>
<path transform="translate(664,282)" d="m0 0 1 2 2 1 8 15-1 6-2-4-4-11-4-6z" fill="#B0C2C8"/>
<path transform="translate(410,264)" d="m0 0h24v1l-14 1v2h-6l2-2-6-1z" fill="#223744"/>
<path transform="translate(406,22)" d="m0 0h5l-5 4-8 4-3-1 3-3z" fill="#585F60"/>
<path transform="translate(1011,796)" d="m0 0 4 1-15 8-4 2h-3v-2l17-8z" fill="#969B9B"/>
<path transform="translate(309,685)" d="m0 0 3 3 3 7 4 7v2l-3-1-8-17z" fill="#172935"/>
<path transform="translate(402,638)" d="m0 0 4 4 3 6-1 5-3-4-3-6z" fill="#122431"/>
<path transform="translate(521,568)" d="m0 0 11 2 2-1-1 4-4 1-8-2z" fill="#516C77"/>
<path transform="translate(497,392)" d="m0 0 5 1 14 5 1 2-6-1-12-4z" fill="#244153"/>
<path transform="translate(395,268)" d="m0 0 3 1 4 2-7 2-4-1h2v-2l-10 3-4-1z" fill="#435259"/>
<path transform="translate(702,670)" d="m0 0 2 3 2-1 2-2 4 2-4 4-8 3 1-8z" fill="#D3D5D3"/>
<path transform="translate(429,632)" d="m0 0 3 3 4 9 2 8-1 4-4-13-4-8z" fill="#7D878A"/>
<path transform="translate(392,528)" d="m0 0 9 3 3 2h-10l-4 3v-6z" fill="#3D4F57"/>
<path transform="translate(366,508)" d="m0 0 8 6 5 5-1 3v-2l-4-2-10-7 2-1z" fill="#1D2E3A"/>
<path transform="translate(393,503)" d="m0 0h2l1 3h-2l-1 4-2 4-4-4 2-4 4-2z" fill="#ECEFEE"/>
<path transform="translate(244,493)" d="m0 0 1 3 6 2-4 1-1 2h-4l-1-5z" fill="#DBDDDB"/>
<path transform="translate(575,434)" d="m0 0 9 1 4 3-1 7-2 1v-7l-10-3z" fill="#2E5062"/>
<path transform="translate(455,426)" d="m0 0 11 1-2 4-2 1h-6l2-2-6-2z" fill="#4F889F"/>
<path transform="translate(486,380)" d="m0 0 1 3h3v2l-4 1-5 11-2-1 5-13z" fill="#E0E6E7"/>
<path transform="translate(308,334)" d="m0 0 2 1-3 5-3 7h-2l-1-4 4-8 2 1z" fill="#636B6D"/>
<path transform="translate(320,997)" d="m0 0 5 2 4 1 2-1v3h-2v2h-5l-5-4z" fill="#989D9D"/>
<path transform="translate(676,445)" d="m0 0h7v5l-7 1-1-4z" fill="#456371"/>
<path transform="translate(767,406)" d="m0 0 5 1v4l1 4h-3v-2h-3l-2-5z" fill="#E4E7E6"/>
<path transform="translate(463,357)" d="m0 0 5 1v4l-6 2-4-1 2-3h2z" fill="#E6EAE9"/>
<path transform="translate(593,351)" d="m0 0 5 1 7 3 11 3v1h-7l-13-5z" fill="#4C6A77"/>
<path transform="translate(474,344)" d="m0 0h5l1 3h2l-1 5h-3l-4-6z" fill="#65A6BC"/>
<path transform="translate(607,297)" d="m0 0 1 3-4 1-2 5-1 9-3 2 1-9 3-7 3-1v-2z" fill="#5B717B"/>
<path transform="translate(124,227)" d="m0 0h4l3 6-2 4h-2l-3-7z" fill="#C8D2D4"/>
<path transform="translate(954,145)" d="m0 0h2v4h2l3 4h-4v5l-2-1-3-9h2z" fill="#ECEFEE"/>
<path transform="translate(955,48)" d="m0 0 4 1 1 5-2 2-4-1v-6z" fill="#ECEFEE"/>
<path transform="translate(885,857)" d="m0 0m-3 1 5 1-4 3-10 4 2-5z" fill="#8D9292"/>
<path transform="translate(658,450)" d="m0 0h2l-2 4-9 7-3 1 2-4 7-6z" fill="#061522"/>
<path transform="translate(599,314)" d="m0 0 2 1 4 12 3 3-1 2-6-7-2-5z" fill="#18394C"/>
<path transform="translate(110,273)" d="m0 0 2 1-3 4-7 3-2 1-2-2 1-2z" fill="#E7EBEA"/>
<path transform="translate(436,263)" d="m0 0h21v1l-7 1-4 1h-8v-2z" fill="#284250"/>
<path transform="translate(1020,248)" d="m0 0 4 4v9l-4-5-2-5z" fill="#DDDFDD"/>
<path transform="translate(334,93)" d="m0 0m-2 1h2l-1 3-16 7-3-1 9-4z" fill="#C1D1D6"/>
<path transform="translate(262,936)" d="m0 0h4l1 7-6 3z" fill="#9EA2A2"/>
<path transform="translate(558,560)" d="m0 0 2 1v3 3l-6-1h-4l-1-3z" fill="#162B39"/>
<path transform="translate(334,507)" d="m0 0 6 2 7 8h-3l-10-8z" fill="#20313C"/>
<path transform="translate(260,499)" d="m0 0 2 1-2 3-12 4h-5l1-2 9-3z" fill="#214C65"/>
<path transform="translate(407,415)" d="m0 0 11 4 10 4v1h-6l-15-7z" fill="#1B3D51"/>
<path transform="translate(746,410)" d="m0 0 3 1v7l-1 5-3-3v-7z" fill="#0E2130"/>
<path transform="translate(601,316)" d="m0 0 2 1 4 7 2 3 1 6h-2l-3-5-4-9z" fill="#2D546A"/>
<path transform="translate(516,309)" d="m0 0 3 3-2 5-1 2-2-1-1 2-2-2 3-6 1-1z" fill="#E9ECEB"/>
<path transform="translate(340,293)" d="m0 0 3 1h-2l1 3-10 9-3-1 10-10z" fill="#2D404B"/>
<path transform="translate(811,893)" d="m0 0m-4 1 3 1v2l-14 6-2-1 3-3 5-1h3z" fill="#979C9C"/>
<path transform="translate(327,487)" d="m0 0 1 4 1 7h-2l-2-4-4-4 4-2z" fill="#787D7E"/>
<path transform="translate(353,421)" d="m0 0 7 1 17 6v1l-7-1-15-5z" fill="#AAC5CE"/>
<path transform="translate(506,416)" d="m0 0h4v3l5 1v2l4 2-6-1-7-3-1-3z" fill="#BCCBD0"/>
<path transform="translate(582,406)" d="m0 0h2l3 9v6h-3l-1-9-2-5z" fill="#1F4359"/>
<path transform="translate(507,320)" d="m0 0 2 3-2 5-3 10-3-1 3-9z" fill="#618795"/>
<path transform="translate(625,292)" d="m0 0h4l3 3 6 5 3 6h-2l-5-7-9-4z" fill="#355E73"/>
<path transform="translate(947,123)" d="m0 0 4 1 8 14-1 2-5-6-2-6-4-1z" fill="#CFD0CE"/>
<path transform="translate(900,850)" d="m0 0m-4 1h4l-1 3-12 5-2-1 5-3h2v-2z" fill="#969B9B"/>
<path transform="translate(223,507)" d="m0 0 1 3h-2l-2 4-6-2v-3l8-1z" fill="#E6E8E7"/>
<path transform="translate(484,421)" d="m0 0 1 2h2l-2 5-5 10-1-3z" fill="#426679"/>
<path transform="translate(619,331)" d="m0 0 10 1 8 2-3 2-9-1-6-2z" fill="#4F8CA4"/>
<path transform="translate(164,224)" d="m0 0h4v7l-6-1-1-3z" fill="#979C9C"/>
<path transform="translate(939,198)" d="m0 0 1 2h3v5l-1 5-3-3-1-8z" fill="#ECEFEE"/>
<path transform="translate(372,32)" d="m0 0h4l-2 4-5 3-7 2v-2l8-4h2z" fill="#CCCDCB"/>
<path transform="translate(378,975)" d="m0 0 8 1 4 1-1 2-6-1 2 5h-3l-2-3 1-1-3-3z" fill="#979C9C"/>
<path transform="translate(236,946)" d="m0 0 5 1 4 2v2l-4 1-7-2z" fill="#CCCDCB"/>
<path transform="translate(624,684)" d="m0 0 5 1 2 6h-5l-3-4z" fill="#D1D2D0"/>
<path transform="translate(482,577)" d="m0 0 4 2 7 6v2l3 1v2l-5-2-3-2-3-5z" fill="#0E202E"/>
<path transform="translate(220,555)" d="m0 0h2l-2 4h-4v2l-5 1-2-1v-2z" fill="#E7EBEA"/>
<path transform="translate(486,532)" d="m0 0 2 1-4 5v2h-2l-2 4h-3l3-6z" fill="#152531"/>
<path transform="translate(781,509)" d="m0 0 4 2v2l-4 4h-2v4h-2v-7z" fill="#DDDFDD"/>
<path transform="translate(241,475)" d="m0 0 3 1-4 1-1 3-7 2-3 1v-3z" fill="#102433"/>
<path transform="translate(536,472)" d="m0 0 2 1-14 7h-2l1-4 9-2z" fill="#48798C"/>
<path transform="translate(645,460)" d="m0 0 2 3-9 11-1-3z" fill="#152835"/>
<path transform="translate(843,423)" d="m0 0 5 2v4l-5 1-6-4 1-2 4 1v2l2-1z" fill="#ECEFEE"/>
<path transform="translate(755,403)" d="m0 0h7l2 1v2l-9 1-4 1 1-3z" fill="#D2D8D8"/>
<path transform="translate(583,392)" d="m0 0m-5 1h5l1 10-1 3-2-3-2-6z" fill="#A1A6A6"/>
<path transform="translate(677,296)" d="m0 0 3 1v3h2v3l-4 1-3-2z" fill="#E8EBEA"/>
<path transform="translate(468,266)" d="m0 0 9 1 13 5 1 2-6-1-12-5-5-1z" fill="#757C7C"/>
<path transform="translate(441,268)" d="m0 0h19l-1 3-18-2z" fill="#E1E6E6"/>
<path transform="translate(470,994)" d="m0 0 2 1 2 6 3 2v2l-4 1-2-1-1-4v-3z" fill="#979C9C"/>
<path transform="translate(254,959)" d="m0 0 3 1 1 5-4 1 3 1-1 4-3-1v-5-3z" fill="#979C9C"/>
<path transform="translate(613,663)" d="m0 0h4l-1 3-7 4-2-1 2-5z" fill="#ECEFEE"/>
<path transform="translate(408,619)" d="m0 0 5 3 3 4-3 1-5-2z" fill="#214E69"/>
<path transform="translate(388,497)" d="m0 0 1 2 6 1v1l-5 1-2 2 1 2h-4l1-5z" fill="#E0E7E7"/>
<path transform="translate(269,460)" d="m0 0h6l2 1-1 2-8 1-5 2-3-1z" fill="#898E8F"/>
<path transform="translate(728,449)" d="m0 0 7 1 5 5 1 2-9-3-4-3z" fill="#45829B"/>
<path transform="translate(332,430)" d="m0 0 4 5 5 11-1 3-1-4h-2l-1-8h-2l-2-4z" fill="#385C6E"/>
<path transform="translate(759,410)" d="m0 0h3l1 6-1 4h-2l-2-9z" fill="#D6DBDB"/>
<path transform="translate(550,410)" d="m0 0 11 1 3 1 1 3-8-1-7-3z" fill="#26485B"/>
<path transform="translate(323,350)" d="m0 0h6v2l-4 2v7l-5-4z" fill="#E6E9E8"/>
<path transform="translate(577,330)" d="m0 0 4 4 5 9 2 3-4-2-7-11z" fill="#264A5E"/>
<path transform="translate(205,151)" d="m0 0 1 2-6 3h-3v2l-5 2h-3v-2l11-5z" fill="#E5E9E9"/>
<path transform="translate(453,69)" d="m0 0 2 2 1 3-1 2h2l3 5v3l-3-1-3-6-2-5z" fill="#CCCFCE"/>
<path transform="translate(456,1007)" d="m0 0h2v9l-4 1-1-6v-3z" fill="#979C9C"/>
<path transform="translate(282,994)" d="m0 0 3 1 1 5-1 1 2 2h-2l-1 2-3-5z" fill="#CCCDCB"/>
<path transform="translate(239,932)" d="m0 0 3 3-1 1 2 1v2l-4-1h-4v-4h4z" fill="#979C9C"/>
<path transform="translate(142,925)" d="m0 0 2 2h-2v2l3 1h-3l1 5-3 1-2-5z" fill="#9CA0A0"/>
<path transform="translate(362,750)" d="m0 0 3 1-3 3-7 3-3-1 3-3z" fill="#DBDFDF"/>
<path transform="translate(562,697)" d="m0 0 2 3-2 2 1 2-7 1-1-2 1-2h3v-2h3z" fill="#EAEDEC"/>
<path transform="translate(548,612)" d="m0 0h6l4 3v2l2 1h-3l-8-4z" fill="#122432"/>
<path transform="translate(356,478)" d="m0 0 4 1 3 5 2 2-1 4-8-10z" fill="#1E3B4D"/>
<path transform="translate(745,451)" d="m0 0 5 2 9 9 1 4-5-5-10-9z" fill="#8A9090"/>
<path transform="translate(812,431)" d="m0 0 5 4h-2v2l2 1h-2l-1 2-5-6z" fill="#E9ECEB"/>
<path transform="translate(327,417)" d="m0 0 2 2 3 10-1 5-2-3-2-10z" fill="#274657"/>
<path transform="translate(549,340)" d="m0 0 3 3 1 6h2l3 5v2h-2l-5-8v-4h-2z" fill="#7B8486"/>
<path transform="translate(48,301)" d="m0 0 2 1-3 3-6 2-4 2h-3v-2z" fill="#E4E7E6"/>
<path transform="translate(241,90)" d="m0 0 4 1-2 3h-8v2l-5 1 4-4z" fill="#C9CAC8"/>
<path transform="translate(188,1013)" d="m0 0 7 4 3 1v3l-10-2v-4z" fill="#979C9C"/>
<path transform="translate(520,1006)" d="m0 0 5 2v-2l2 1 1 8-2-1v-3h-3v-2l-3 1-1-2z" fill="#989D9D"/>
<path transform="translate(439,989)" d="m0 0 4 1v3h3l-1 4h-4v-4h-2z" fill="#979C9C"/>
<path transform="translate(955,823)" d="m0 0m-1 1m-2 1 4 2-11 5h-2l2-4z" fill="#8F9494"/>
<path transform="translate(535,707)" d="m0 0 4 4 3 4h-2v4h-2l-3-8z" fill="#D6DCDD"/>
<path transform="translate(559,625)" d="m0 0 1 4-8 7v-3zm-10 11 2 1-3 2z" fill="#192832"/>
<path transform="translate(549,590)" d="m0 0h6l6 1v3h2v2l-9-3-5-2z" fill="#A2ABAC"/>
<path transform="translate(780,532)" d="m0 0 6 1-2 4h-3l-3 1-1-5 3 1z" fill="#DEE1DF"/>
<path transform="translate(200,514)" d="m0 0h6l3 1-2 5-3 1-2-4-2-1z" fill="#E8EBE9"/>
<path transform="translate(289,490)" d="m0 0h1v7l-4 3-1-5v-4l4 1z" fill="#15374B"/>
<path transform="translate(408,477)" d="m0 0h1l-1 8-2 5-3-3v-3h2zm-5 12m-2 1 2 1z" fill="#E2E7E8"/>
<path transform="translate(737,477)" d="m0 0 4 2 1 3 3 3v4h-2l-6-9z" fill="#122431"/>
<path transform="translate(724,461)" d="m0 0 5 3 4 4-1 2-5-3-4-1v-3l-2-1z" fill="#224A63"/>
<path transform="translate(350,371)" d="m0 0 3 1-5 2v2l-4 2h-7l1-3 3 1z" fill="#90BAC8"/>
<path transform="translate(489,278)" d="m0 0 6 2 3 3-4 1-1 3h-2l-1-5v-2z" fill="#BEC6C7"/>
<path transform="translate(596,274)" d="m0 0 4 1-11 7-4 4 2-5 5-4h2v-2z" fill="#63747A"/>
<path transform="translate(235,94)" d="m0 0h5l-4 3-8 3h-4v-3l8-1h3z" fill="#ABAFAE"/>
<path transform="translate(292,994)" d="m0 0 4 1 3 2-2 4-4-2z" fill="#CECFCD"/>
<path transform="translate(370,987)" d="m0 0h3v10h-3l-2-7z" fill="#989D9D"/>
<path transform="translate(360,973)" d="m0 0 6 2v2l2 1-3 1-2-1-1 2-3-4z" fill="#989D9D"/>
<path transform="translate(218,923)" d="m0 0h2v2h-2l1 5 2 1-1 4-3-3 1-2-3-1 2-5z" fill="#989D9D"/>
<path transform="translate(403,707)" d="m0 0v3l-3 1v2l-4 4-4-1 4-4z" fill="#071623"/>
<path transform="translate(355,522)" d="m0 0 11 3 4 3v2l-5-2-10-5z" fill="#727879"/>
<path transform="translate(772,408)" d="m0 0 2 2v9l-4-2-2-4 4 1-2-5z" fill="#BDC0BE"/>
<path transform="translate(756,399)" d="m0 0h9l-4 2 2 2h-10l1-3z" fill="#2F414B"/>
<path transform="translate(369,363)" d="m0 0 2 1-8 4-8-1 4-1v-2h8z" fill="#97B7C2"/>
<path transform="translate(423,332)" d="m0 0h5l-4 4-9 2 4-4z" fill="#172C3A"/>
<path transform="translate(675,302)" d="m0 0 5 2v2h-3v8l1 2-3 1-1-13z" fill="#D1D9DA"/>
<path transform="translate(0,238)" d="m0 0 10 1-2 2-8 2z" fill="#E9EBEA"/>
<path transform="translate(483,990)" d="m0 0 4 1-1 3-5-1v2h-3l-1-4z" fill="#9A9F9F"/>
<path transform="translate(364,986)" d="m0 0h6v5l-5 1-2-2z" fill="#C8C9C8"/>
<path transform="translate(171,986)" d="m0 0 3 1-1 5h2l1-3 3 5-11-2 4-1v-2l-2-1z" fill="#979C9C"/>
<path transform="translate(472,978)" d="m0 0 3 2v2h3l1-2v3l-4 1v2h-2v-3l-3-1 2-1z" fill="#9EA2A2"/>
<path transform="translate(329,975)" d="m0 0h2l1 4 5 2-2 2h-3l-1 2-1-2 1-2h-2z" fill="#9A9F9F"/>
<path transform="translate(694,671)" d="m0 0 5 4 1 4-4 1zm6 2 2 1-1 2z" fill="#E1E4E3"/>
<path transform="translate(690,660)" d="m0 0 4 5v8l-3-4-2-4z" fill="#D0D3D2"/>
<path transform="translate(571,537)" d="m0 0h6l1 3-1 3h-3v-2l-4-1z" fill="#CECFCD"/>
<path transform="translate(188,498)" d="m0 0 7 1-1 2-11 2 1-3z" fill="#162B3A"/>
<path transform="translate(205,489)" d="m0 0 3 1-16 8-3-1 8-4z" fill="#84898A"/>
<path transform="translate(304,465)" d="m0 0 4 2 4 9-1 2-6-9z" fill="#555D5E"/>
<path transform="translate(301,459)" d="m0 0 3 4 3 9-2 2-4-8z" fill="#22333E"/>
<path transform="translate(375,403)" d="m0 0 7 1 8 3 4 2-4 1-15-6z" fill="#2D556C"/>
<path transform="translate(353,398)" d="m0 0 7 1 9 2-4 2-8-2-4-2z" fill="#1B394C"/>
<path transform="translate(477,393)" d="m0 0 1 3-4 11-1 6h-1v-7l2-9z" fill="#5798AF"/>
<path transform="translate(325,361)" d="m0 0 1 2 3-1-1 5h-3l-1 3-4-2 4-1 1-4-2-1z" fill="#EBEDEC"/>
<path transform="translate(531,315)" d="m0 0 3 1 4 6-1 2h-3l-3-5z" fill="#1D3645"/>
<path transform="translate(30,186)" d="m0 0h6l-2 1v2l-10 2v-2z" fill="#465052"/>
<path transform="translate(303,985)" d="m0 0 2 2-1 5-6 2-1-3 4 1v-6z" fill="#979C9C"/>
<path transform="translate(138,911)" d="m0 0 3 1-2 5-4-1v-1l-3-1v-2z" fill="#979C9C"/>
<path transform="translate(638,688)" d="m0 0h2l4 9h-4l-2-1z" fill="#E4E7E6"/>
<path transform="translate(533,633)" d="m0 0 6 2 2-1 2 1-2 5-6-2z" fill="#ECEFEE"/>
<path transform="translate(652,562)" d="m0 0 5 3 6 5-2 2-10-8z" fill="#213441"/>
<path transform="translate(227,525)" d="m0 0h5l-4 4-6 2v-3z" fill="#E4E9E9"/>
<path transform="translate(367,515)" d="m0 0 5 2 3 3 4 2-1 4h-2l-3-5-6-5z" fill="#7B8081"/>
<path transform="translate(402,502)" d="m0 0h2l-1 6-1 7h-2v-2l-2-1z" fill="#2E4F61"/>
<path transform="translate(489,408)" d="m0 0 2 3-4 12h-2l1-7z" fill="#304E60"/>
<path transform="translate(344,394)" d="m0 0 10 1v2l-2 1h-6l-4-3z" fill="#1A3C52"/>
<path transform="translate(470,349)" d="m0 0h5l1 2h-2v4l-5-1v-3z" fill="#D4D5D3"/>
<path transform="translate(961,152)" d="m0 0 2 4h-2v3l-4-1v-5z" fill="#D0D1CF"/>
<path transform="translate(263,961)" d="m0 0h2v2l3 1-1 2h-4l-2 2-2-6 4 1z" fill="#989D9D"/>
<path transform="translate(606,732)" d="m0 0h5l4 4-5 3-1-3-3-2z" fill="#E7EAE9"/>
<path transform="translate(563,690)" d="m0 0h2l4 4-2 3v2h-2l-3-6z" fill="#ECEFEE"/>
<path transform="translate(269,522)" d="m0 0 4 1-8 4-7 1 1-2z" fill="#112736"/>
<path transform="translate(448,508)" d="m0 0h6l-4 3-6 3-3-1z" fill="#4A8CA6"/>
<path transform="translate(247,472)" d="m0 0 5 1-4 3-4 2-4-1 3-1-1-2z" fill="#1E394B"/>
<path transform="translate(414,468)" d="m0 0 1 4-3 8-1 2h-2l3-10z" fill="#1E4156"/>
<path transform="translate(530,422)" d="m0 0 13 1 4 2-1 1-10-1-6-2z" fill="#437085"/>
<path transform="translate(326,390)" d="m0 0 9 1 3 3h-7l-5-3z" fill="#162938"/>
<path transform="translate(326,388)" d="m0 0 7 1 6 2-1 2-7-2-6 1z" fill="#22455A"/>
<path transform="translate(396,347)" d="m0 0h6v3l-7 2-3-2 3-1z" fill="#A5C1CB"/>
<path transform="translate(504,303)" d="m0 0 7 1 3 3-1 5-1-4-5-2z" fill="#244355"/>
<path transform="translate(512,282)" d="m0 0 7 2 5 5-3 1-5-4-4-2z" fill="#E4E7E6"/>
<path transform="translate(485,278)" d="m0 0 5 1 2 3-1 1 1 5h-2l-2-5-3-3z" fill="#E4E8E7"/>
<path transform="translate(987,193)" d="m0 0 3 1 2 3-1 4-2 1-3-7z" fill="#E7EAE9"/>
<path transform="translate(388,28)" d="m0 0 1 2-10 4-2-2h3v-3z" fill="#CECFCD"/>
<path transform="translate(886,8)" d="m0 0 5 4 1 4h2l-1 4-2-1-2-5-3-3z" fill="#CECFCD"/>
<path transform="translate(528,993)" d="m0 0 2 3v3l-6 1-1-4z" fill="#9B9F9F"/>
<path transform="translate(304,970)" d="m0 0h6l2 3-2 2-4-1-3-3z" fill="#CECFCD"/>
<path transform="translate(174,906)" d="m0 0 3 1 1 4 3 1-4 3-2-1-1-5z" fill="#979C9C"/>
<path transform="translate(625,586)" d="m0 0h2l1 4v7l-2-1-2-4z" fill="#112838"/>
<path transform="translate(736,551)" d="m0 0 2 1-8 6-6 1-1-2 9-3z" fill="#898E8F"/>
<path transform="translate(218,543)" d="m0 0 6 1-3 2-9 2v-2z" fill="#193A4E"/>
<path transform="translate(552,538)" d="m0 0 1 4h-2v2h-3l-1 2v-7z" fill="#E2E4E3"/>
<path transform="translate(753,517)" d="m0 0 2 1 1 5-3 7h-1z" fill="#0B2131"/>
<path transform="translate(299,510)" d="m0 0 2 2v6l-8-4v-1l5-1z" fill="#224A62"/>
<path transform="translate(510,484)" d="m0 0 3 1-10 5h-6l3-2z" fill="#537988"/>
<path transform="translate(352,418)" d="m0 0 11 1 4 3-9-1h-5z" fill="#BACED4"/>
<path transform="translate(544,406)" d="m0 0 6 1 7 3-4 1h-6l-3-3z" fill="#2D566D"/>
<path transform="translate(502,379)" d="m0 0 2 1-3 8v4h-4l2-6z" fill="#3C5866"/>
<path transform="translate(458,321)" d="m0 0 3 2-13 5-3-1z" fill="#C6D4D8"/>
<path transform="translate(487,307)" d="m0 0h5l-1 3-7 2-3-2z" fill="#A2C3CE"/>
<path transform="translate(491,303)" d="m0 0 3 1-9 5-4-1 6-4z" fill="#244558"/>
<path transform="translate(516,286)" d="m0 0 4 2 4 4v2l-6-2-2-2h2z" fill="#7E898D"/>
<path transform="translate(78,246)" d="m0 0h2l2 4v3h2v3h-3l-3-7z" fill="#E4E9E9"/>
<path transform="translate(933,184)" d="m0 0 3 1v6l-2 2-2-3z" fill="#ECEFEE"/>
<path transform="translate(923,80)" d="m0 0 4 2 2 4-3 1-2-1-1 2-1-3h3z" fill="#E9ECEB"/>
<path transform="translate(417,56)" d="m0 0 3 1-4 1v2l-4 2h-5l1-2z" fill="#DDE5E6"/>
<path transform="translate(309,977)" d="m0 0 2 1v2l-5 1-1 2-2 3-2-1v-4l4-2h3z" fill="#CBCDCB"/>
<path transform="translate(260,922)" d="m0 0 1 2-1 2h2l1 7h-2l-3-5v-3z" fill="#979C9C"/>
<path transform="translate(231,922)" d="m0 0h3v2h3l2 7-4-2v-2h-2v-4z" fill="#9B9F9F"/>
<path transform="translate(532,738)" d="m0 0h2l2 6-2 4-2 1z" fill="#DCDEDC"/>
<path transform="translate(292,651)" d="m0 0h2l2 5v5l-3-3-2-6z" fill="#1B2E3C"/>
<path transform="translate(606,590)" d="m0 0 1 2v1l2-1v2l3-1-1 3-8 2v-2h2l-1-4z" fill="#CECFCD"/>
<path transform="translate(306,472)" d="m0 0h2l5 9-2 2-5-8z" fill="#162C3B"/>
<path transform="translate(833,449)" d="m0 0 4 1 1 4-3 1 1 5-3 1 1-9v-1z" fill="#E9ECEB"/>
<path transform="translate(459,451)" d="m0 0h11l-2 2-4 1h-9z" fill="#C1D1D6"/>
<path transform="translate(755,416)" d="m0 0 2 4 2 5-4 1-4-5 4 1z" fill="#B4BBBC"/>
<path transform="translate(513,414)" d="m0 0 8 2 3 4h-4v-2l-9-2z" fill="#275067"/>
<path transform="translate(524,401)" d="m0 0 13 4 2 2-8-1-7-3z" fill="#1E4055"/>
<path transform="translate(526,315)" d="m0 0 2 1-4 10-3-2v-2l3-3z" fill="#E5E8E8"/>
<path transform="translate(29,309)" d="m0 0 3 1-4 3-7 2-1-2z" fill="#E3E6E5"/>
<path transform="translate(96,279)" d="m0 0 3 1-3 3-5 2h-3v-2z" fill="#E4E7E7"/>
<path transform="translate(638,279)" d="m0 0 10 1 2 4-6-1-6-3z" fill="#497284"/>
<path transform="translate(608,269)" d="m0 0h6l-1 2-10 3-3-1z" fill="#576C74"/>
<path transform="translate(100,238)" d="m0 0 5 5v2h-5l-3-4 1-2 2 1z" fill="#959A9A"/>
<path transform="translate(943,113)" d="m0 0 2 2 3 4-1 3-3-1-2-6z" fill="#E3E6E5"/>
</svg>
